<?xml version="1.0" encoding="UTF-8" standalone="no"?>
<!-- Generator: Adobe Illustrator 24.1.1, SVG Export Plug-In . SVG Version: 6.00 Build 0)  -->

<svg
   version="1.1"
   id="Livello_1"
   x="0px"
   y="0px"
   viewBox="0 0 634.14984 810.73241"
   xml:space="preserve"
   sodipodi:docname="vett.svg"
   inkscape:version="1.1 (ce6663b3b7, 2021-05-25)"
   width="634.14984"
   height="810.73242"
   xmlns:inkscape="http://www.inkscape.org/namespaces/inkscape"
   xmlns:sodipodi="http://sodipodi.sourceforge.net/DTD/sodipodi-0.dtd"
   xmlns="http://www.w3.org/2000/svg"
   xmlns:svg="http://www.w3.org/2000/svg"><defs
   id="defs257" /><sodipodi:namedview
   id="namedview255"
   pagecolor="#ffffff"
   bordercolor="#666666"
   borderopacity="1.0"
   inkscape:pageshadow="2"
   inkscape:pageopacity="0.0"
   inkscape:pagecheckerboard="0"
   showgrid="false"
   inkscape:zoom="0.6687863"
   inkscape:cx="498.66452"
   inkscape:cy="568.94108"
   inkscape:window-width="1920"
   inkscape:window-height="1028"
   inkscape:window-x="0"
   inkscape:window-y="24"
   inkscape:window-maximized="1"
   inkscape:current-layer="g213" />
<style
   type="text/css"
   id="style203">
	.st0{fill:none;}
	.st1{font-family:'Castellar';}
	.st2{font-size:46.1364px;}
	.st3{font-size:58.0426px;}
	.st4{fill:url(#SVGID_1_);}
</style>
<g
   id="g213"
   transform="translate(-363.48653,85.52857)">
	<path
   id="path205"
   style="stroke-width:2"
   d="m 306.99609,0.05664062 c -0.59,0.21 -1.1039,0.98499998 -1.5039,1.87499998 -0.62,1.34 -0.73961,2.9189063 -1.09961,4.3789063 -7.38,29.5200001 -11.88102,59.6208591 -18.04102,89.3808591 -8.64,41.780004 -17.27906,83.578674 -24.53906,125.638674 -1.36,7.86 -1.50039,8.16039 -8.40039,3.90039 -19.6,-12.1 -39.30031,-23.97891 -59.32031,-35.37891 -22.24,-12.66 -44.76032,-25.06101 -65.82032,-39.54101 -9.06,-6.22 -19.97976,-10.01985 -27.25976,-18.83985 -5.420044,0.78 -9.878986,-4.03953 -15.958986,-2.51953 1.58,2.48 3.000079,4.88016 4.580078,7.16016 6.700002,9.6 13.519848,19.09961 20.339848,28.59961 17.1,23.78 35.59875,46.46031 53.21875,69.82031 13.24,17.58 27.87976,34.07906 37.75976,54.03906 2.14,4.32 2.22094,5.35992 -2.53906,6.91992 -28.44,9.26 -57.83984,14.52086 -86.83984,21.38086 -27.880176,6.58 -56.079692,11.74076 -84.179692,17.30079 -7.36,1.45999 -14.721328,3.41921 -22.361328,2.69921 -2.12,-0.2 -5.2590625,-0.36078 -4.5390625,2.19922 0.52,1.82 -2.6205469,4.29977 2.4394531,5.25977 l 1.9003906,0.62109 c 6.9399998,0.14 10.9592968,3.08039 13.7792968,3.40039 16.14,2.32 26.060234,4.79992 39.740234,6.91992 11.180003,1.72 21.921172,5.35993 33.201172,6.91993 10.699996,1.48 21.519136,1.25976 32.119146,3.25976 19.65997,3.72 39.30101,7.60047 59.04101,10.98047 12.34,2.12 24.80008,3.41914 37.58008,5.11914 -3.5,3.98 -5.08039,8.4593 -6.90039,12.7793 -9.96,23.56 -22.59992,45.70023 -35.41992,67.74023 -16.56,28.46 -35.24063,55.73977 -48.14063,86.25977 -1.32,3.16 -2.62062,6.10015 0.35938,8.66015 3.48,2.98 5.86125,-0.2196 8.28125,-2.09961 10.42,-8.13999 20.50023,-16.73992 31.24023,-24.41992 17.82,-12.74 33.65852,-27.8607 50.97852,-41.2207 18.04,-13.92 35.44047,-28.7593 52.48047,-45.2793 3.11997,15.16 7.60039,29.20078 9.90039,43.80078 2.52,16 6.79984,31.7393 8.83984,47.7793 4.06,31.88 10.6407,63.17961 19.2207,94.09961 0.24,0.92 0.61977,1.64016 0.25977,2.66016 -1.74,4.86 0.47953,9.28109 2.01953,13.62109 0.72,2.04 2.15969,4.93883 5.17969,4.29883 2.5,-0.54 2.97937,-3.13992 3.35937,-5.41992 1.38,-8.2 3.08055,-16.35961 4.06055,-24.59961 4.66,-39.2 13.86039,-77.70008 17.40039,-117.08008 2.2,-24.68 9.98039,-48.30055 14.40039,-72.56055 0.64,-3.56 2.13922,-2.53886 4.19922,-1.39843 6.12,3.39999 10.40117,9.11995 16.70117,12.5 2.92,1.55997 4.95984,-0.76063 7.33984,0.85937 12.76,8.7 25.69954,17.17883 38.51954,25.79883 11.42,7.68 22.11984,16.76178 34.33984,22.8418 11.28,5.59996 21.85977,12.29843 32.75977,18.39843 9.09998,5.06 18.19953,10.36149 27.01953,16.02149 2.34,1.5 4.96047,-0.40008 7.48047,0.41992 0.31997,0.1 0.37968,-2.82156 -0.32032,-4.10156 -2.98,-5.44 -5.91875,-10.89868 -9.21875,-16.13868 -10.16,-16.16 -21.89984,-31.20054 -33.83984,-46.06054 -6.16,-7.66 -11.02102,-16.22094 -17.04102,-23.96094 -10.06,-12.96 -20.15937,-25.89977 -30.35937,-38.75977 -5.02,-6.36 -9.50055,-13.19921 -16.06055,-18.19921 -1.76,-1.32 -2.95976,-2.91977 -2.75976,-5.25977 0.24,-2.82 2.82031,-2.10055 4.32031,-2.56055 23.4,-7.06 47.6389,-10.45953 71.3789,-16.01953 10.4,-2.44 21.26032,-2.80015 31.82032,-4.66015 7.76,-1.38 15.28054,-4.16094 23.06054,-5.46094 13.76,-2.32 27.65899,-3.79969 41.45899,-5.67969 10.2,-1.4 20.32094,-4.11977 30.46094,-6.25977 2.74,-0.58 3.68007,0.8611 7.08007,1.1211 4.98,0.38 1.70047,0.33892 4.98047,0.3789 2.86,0.04 3.45828,-5.76015 2.73828,-9.66015 -0.48,-2.7 -1.75929,-2.91899 -3.77929,-2.95899 -4.54,-0.1 -9.08055,0.44032 -13.56055,-0.67968 -14.24,-3.56 -28.74,-5.52102 -43,-9.54102 -17.82,-5.04 -36.65945,-6.63945 -54.93945,-10.43945 -20.14,-4.2 -40.79938,-5.12008 -60.85938,-10.08008 -14.66,-3.64 -29.57992,-6.18094 -44.41992,-8.96094 -4.62,-0.86 -5.16047,-2.45961 -2.48047,-6.09961 3.48,-4.72 5.69992,-10.16031 8.41992,-15.32031 14.04,-26.54 28.43961,-52.87938 42.59961,-79.35937 7.36,-13.76 16.13953,-26.70024 23.01953,-40.74024 2.04,-4.18 4.62172,-8.10023 6.76172,-12.24023 4.44,-8.52 6.81977,-18.00055 12.25977,-26.06055 2.08,-3.1 4.43969,-6.078672 4.67969,-10.138672 0.08,-1.48 0.99898,-3.180078 -0.54102,-4.080078 -1.72,-1.02 -2.60016,0.999375 -3.66016,1.859375 -12.76,10.319995 -25.17875,21.001175 -37.21875,32.201175 -16.6,15.44 -34.12117,29.87875 -51.70117,44.21875 -12.54,10.22 -26.41945,19.15953 -34.43945,34.01953 -0.58,1.08 -1.89945,1.78156 -2.93945,2.60156 -7.4,5.84 -16.1793,9.61852 -23.7793,16.47852 -1.28,-4.64 -2.68039,-8.54008 -3.40039,-12.58008 -2.78,-15.36 -3.13961,-31.01969 -8.09961,-46.17969 -8.98,-27.44 -14.34063,-55.86031 -19.14063,-84.320312 -2.58,-15.36 -4.47984,-30.838281 -6.83984,-46.238281 -0.86,-5.58 -2.74016,-11.041094 -3.16016,-16.621094 -0.36,-4.6399956 -2.76117,-8.1003905 -4.70117,-11.9003905 -0.7,-1.37 -1.36508,-1.72367144 -1.95508,-1.51367188 z m 2.41602,18.61523438 c 3.64,9.8 3.22086,17.699453 -1.11914,19.939453 1.52,-6.54 -0.72086,-13.079453 1.11914,-19.939453 z m -6.74023,22.947266 c 0.17101,7.214124 2.16424,13.973051 3.40039,20.871093 0.1,0.56 0.16,1.181172 0,1.701172 -3.32,10.14 0.30015,20.439141 -0.83985,30.619141 -1.16,10.360003 -0.16144,20.739613 -0.041,31.099613 0.2,17.18 0.32093,34.34 0.46093,51.5 0.02,1.14 -0.25892,2.34039 0.0195,3.40039 5.95999,22.05999 0.22007,44.39961 1.58007,66.59961 0.28,4.52 0.58086,9.22023 0.38086,13.74023 -0.24955,5.61509 1.58614,11.63808 -0.13672,17.32227 0.05,0.11376 0.0488,0.19608 0.0488,0.42773 0,0.11512 2e-5,0.23058 0,0.3457 7e-5,0.10247 7.1e-4,0.20613 0,0.3086 -2.6e-4,0.20973 0.002,0.41921 0,0.6289 0.003,0.0194 0.006,0.0645 0.008,0.1543 0.0105,0.57934 0.0612,0.51315 -0.10937,1.01953 -0.005,0.014 -0.009,0.0285 -0.0137,0.043 0.002,0.2736 -0.0346,0.53654 -0.11524,0.80859 -0.0101,0.0339 -0.004,0.0936 -0.0371,0.10157 0.0732,0.35746 0.0752,0.71053 -0.0527,1.09179 -0.0696,0.14437 -0.13744,0.28924 -0.20703,0.4336 7e-5,0.0852 -0.0111,0.14109 -0.041,0.44336 -0.0113,0.0376 -0.012,0.0404 -0.0215,0.0723 0.0529,0.17676 0.10805,0.3529 0.16211,0.5293 0.0311,0.10135 0.0571,0.20001 0.0801,0.29687 1.2979,0.5614 1.39892,2.28712 1.375,4.27344 -0.08,6.78 0.0391,13.57938 0.11914,20.35938 0,1.24 -0.45993,2.61953 1.58007,3.01953 2.32,0.46 1.24141,3.32148 0.94141,3.52148 -3.68,2.44 -1.70023,5.98024 -1.74023,10.24024 -5.18,-5.32 -10.04008,-8.90133 -13.58008,-14.36133 -3.6,-5.6 -10.20141,-8.77922 -14.94141,-13.69922 -5.1,-5.28 -10.14,-10.71969 -16.5,-14.67969 -1.58,-0.98 -2.19883,-2.56133 -1.79883,-4.86133 0.0862,-0.49481 0.16434,-0.99209 0.2461,-1.48828 -10e-4,-0.16745 0.006,-0.33489 0.0176,-0.50195 0.004,-0.25874 -0.0995,-0.50303 -0.10352,-0.76172 -0.002,-0.0431 -0.0107,-0.2342 -0.004,-0.2832 0.0197,-0.11621 0.0325,-0.17403 0.043,-0.22852 -0.0137,-0.10103 -0.003,-0.20221 0.0371,-0.33789 0.0234,-0.0217 0.0319,-0.031 0.0527,-0.0508 -9.4e-4,-0.0507 -0.002,-0.10156 -0.002,-0.15234 0.002,-0.0277 0.003,-0.0304 0.004,-0.0488 -0.0258,-0.076 -0.0348,-0.12114 -0.0371,-0.16211 -0.0292,-0.0969 -0.125,-0.0826 -0.125,-0.21289 v -0.47852 c -0.019,-0.06 -0.0387,-0.11995 -0.0508,-0.18164 -0.029,-0.0611 -0.042,-0.12074 -0.0352,-0.20703 -5e-4,-10e-4 -4e-4,-0.003 -0.002,-0.004 -0.0318,-0.16374 -0.052,-0.2642 -0.043,-0.42187 10e-6,-0.0608 2.6e-4,-0.12084 0,-0.18164 -1.9e-4,-0.071 -4e-4,-0.14179 0,-0.21289 -8.5e-4,-0.10518 -0.004,-0.2115 0.006,-0.31641 -0.0329,-0.0863 -0.0559,-0.17741 -0.0488,-0.27343 1.3e-4,-0.0723 0.002,-0.1445 0,-0.2168 -0.002,-0.12103 0.006,-0.16662 0.01,-0.23242 0.003,-0.0902 0.004,0.006 -0.0176,-0.14454 -0.007,-0.048 -0.0127,-0.0963 -0.0176,-0.14453 -0.0459,-0.16907 -0.0628,-0.22391 -0.0566,-0.34765 -0.0563,-0.13617 -0.0953,-0.27818 -0.084,-0.42774 -8.7e-4,-0.13152 -0.002,-0.2707 0.002,-0.39843 v -0.002 c -0.0156,-0.0816 -0.0206,-0.16279 0.002,-0.2539 0.0115,-0.0248 0.0234,-0.0496 0.0352,-0.0742 -0.002,-0.01 8e-5,-0.0134 -0.004,-0.0254 -0.0118,-0.11131 -0.0329,-0.22249 0.002,-0.33399 0.0204,-0.0651 0.0316,-0.098 0.0469,-0.14453 0.003,-0.11061 0.004,-0.2211 0.002,-0.33203 1.5e-4,-0.1604 0.002,-0.32007 0.002,-0.48047 -0.0547,0.0203 -0.0227,-0.0469 -0.002,-0.10156 v -0.002 c 0.0122,-0.0325 0.0223,-0.0623 0.002,-0.0625 -0.009,-8e-5 -0.007,0.0228 -0.004,0.0469 -0.0452,-0.21328 -0.0453,-0.15011 -0.0488,-0.36523 -0.0416,-0.23727 -0.0435,-0.47709 -0.0312,-0.7168 -0.003,-0.0642 0.0266,-0.1233 0.0371,-0.18555 3e-5,-0.0358 -1.3e-4,-0.0716 0,-0.10742 0.004,-0.0473 -10e-4,-0.10714 0,-0.16406 v -0.002 c -0.0138,-0.0797 -0.0244,-0.16038 -0.0371,-0.24023 0,-0.002 5.2e-4,-0.004 0.002,-0.006 8.8e-4,-0.005 0.002,-0.0102 0.002,-0.0156 -0.0108,-0.016 -0.0217,-0.0326 -0.0312,-0.0488 -0.0205,-0.0876 -0.0448,-0.17547 -0.0625,-0.26367 -0.003,-0.0131 0.002,-0.0258 0.002,-0.0391 0.002,-0.0963 0.002,-0.19296 -0.006,-0.28906 -0.002,-0.0584 -0.008,-0.18169 -0.002,-0.24219 0.0727,-0.69229 0.0159,0.10708 0.043,-0.28711 0.0113,-0.0641 0.0212,-0.12932 0.0332,-0.19336 1.8e-4,-9.9e-4 0.002,0.004 0.002,0.006 2e-4,0.0189 -4e-4,0.0378 0,0.0566 0.0104,-0.0923 -0.004,-0.19504 0.041,-0.28124 0.0409,-0.0826 -0.003,-0.31005 0.01,-0.41602 9.9e-4,-0.0417 -0.003,-0.18168 0.0117,-0.22852 -0.005,-0.0187 -0.009,-0.0379 -0.0137,-0.0566 -0.003,-0.0253 -0.008,-0.0509 -0.0117,-0.0762 -7.1e-4,-10e-4 -4e-4,-0.003 -0.002,-0.004 -0.0425,-0.0771 -0.0484,-0.17151 -0.0664,-0.25781 -0.004,-0.0215 2e-5,-0.0426 0,-0.0645 -1.3e-4,-0.20015 5.2e-4,-0.40142 0.002,-0.60156 -10e-4,-0.1315 -0.004,-0.26304 -0.004,-0.39453 -7e-5,-0.0299 -0.003,-0.0585 0.002,-0.0879 0.005,-0.0249 0.0129,-0.0497 0.0195,-0.0742 -0.002,-0.007 -0.007,-0.0118 -0.008,-0.0156 -4.6e-4,-0.007 -8e-5,-0.0143 0,-0.0215 -0.0392,-0.10161 -0.0763,-0.20517 -0.0488,-0.32032 0.002,-0.022 0.003,-0.0426 0.006,-0.0645 0.003,-0.0285 0.0145,0.0233 0.0117,-0.0391 -0.007,-0.0828 -0.0341,-0.16424 -0.0547,-0.24414 -0.01,-0.0352 -0.0477,-0.16513 -0.0547,-0.20703 -0.0368,-0.21049 -0.006,-0.13453 -0.0508,-0.32617 -0.009,-0.0704 -0.0203,-0.14024 -0.0273,-0.21094 -0.0113,-0.11403 0.008,-0.23136 0,-0.34571 1.6e-4,-0.0996 0.003,-0.19922 0,-0.29882 -0.002,-0.12567 0.004,-0.25155 0.0117,-0.37696 0.005,-0.0825 0.004,0.007 -0.0195,-0.14062 -0.01,-0.0623 -0.0164,-0.1248 -0.0234,-0.1875 l 0.002,-0.002 c -0.007,-0.0346 -0.0143,-0.0689 -0.0215,-0.10352 -0.005,-0.0106 -0.009,-0.0165 -0.0117,-0.0254 -0.001,-0.005 -0.002,-0.0106 -0.002,-0.0156 0.002,0.008 0.009,0.0157 0.0117,0.0234 -0.002,-0.0111 -0.01,-0.022 -0.0117,-0.0332 -0.0341,-0.0994 -0.0683,-0.19932 -0.0586,-0.30664 2e-5,-0.12662 2.1e-4,-0.25425 0,-0.38086 -1.1e-4,-0.14616 -8.6e-4,-0.29135 0,-0.4375 0,-0.0928 8.6e-4,-0.18685 0.0117,-0.2793 -0.0298,-0.0816 -0.0545,-0.16484 -0.0488,-0.2539 -9.8e-4,-0.17332 -8.8e-4,-0.34471 0.0117,-0.51758 10e-4,-0.002 0.003,-0.008 0.004,-0.006 0.0116,0.026 0.0394,0.10704 0.0312,0.0801 -0.0383,-0.12363 -0.0998,-0.24597 -0.084,-0.38086 0,-0.11116 1.8e-4,-0.22086 0,-0.33204 0,-0.0833 -6.2e-4,-0.1666 0,-0.25 -3.7e-4,-0.11554 -0.007,-0.23226 0,-0.34765 -0.54569,2.79414 -1.10816,5.5855 -1.51758,8.40234 0.60647,-4.47242 1.3969,-8.91071 2.04687,-13.375 -0.23502,0.0883 -0.12373,-0.0823 0.041,-0.26953 1.82479,-12.51697 3.64786,-25.03411 5.74023,-37.50195 -0.0264,-0.33055 -0.0333,-0.70271 0.0586,-0.79883 0.0378,-0.0852 0.076,-0.17042 0.11328,-0.25586 0.0111,-0.0656 0.0208,-0.13169 0.0312,-0.19726 0.0124,-0.0928 0.0232,-0.18407 0.043,-0.28126 9.65444,-57.24073 21.89008,-114.019344 34.12305,-170.896479 z M 262.4082,263.12305 c 0.004,0.009 0.006,0.0183 0.01,0.0273 0.0214,-0.078 0.0449,-0.1561 0.0527,-0.23633 0.006,-0.0642 -0.0418,0.1226 -0.0625,0.1836 10e-6,0.008 10e-5,0.0169 0,0.0254 z m 0.01,0.0273 c -8.7e-4,0.003 -4e-4,0.007 -0.002,0.01 0.0107,0.0292 0.0346,0.0774 0.0312,0.0684 -0.009,-0.0261 -0.0192,-0.0521 -0.0293,-0.0781 z M 312.93164,45.771484 c 0.88,5.22 3.77984,10.279532 -2.66016,14.519532 -2.62,-5.56 -2.57984,-10.259532 2.66016,-14.519532 z m 1.98047,15.378907 c 4.24,10.6 4.24023,10.600234 -5.25977,19.740234 0.96,-7.62 -0.96023,-14.640234 5.25977,-19.740234 z m 3.83984,16.5 c 6.36,11.1 -4.02039,15.681301 -7.90039,22.701169 -0.46,-0.18 -0.89937,-0.380544 -1.35937,-0.560544 2.38,-4.96 4.77937,-9.919297 7.35937,-15.279297 -4.08,0.02 -3.71945,4.299453 -6.93945,5.439453 1.86,-5.2 6.03984,-8.140781 8.83984,-12.300781 z m 2.67969,17.201171 c 3.44,7.419998 3.69953,14.078668 -2.98047,20.138668 -3,2.72 -5.09844,6.40102 -7.89844,10.04102 -1.92,-4.92 0.47852,-8.34031 2.47852,-11.82031 2.04,-3.54 4.12164,-7.06008 6.18164,-10.58008 -0.34,-0.28 -0.68148,-0.57938 -1.02148,-0.85938 -2.66,3.56 -5.31961,7.09977 -8.09961,10.75977 -1.3,-5.16 -0.12016,-6.95969 11.33984,-17.679688 z m 173.86133,9.718748 c -38.5,57.04 -86.10102,106.24141 -130.04102,160.44141 -2.78,-12.26 -5.28062,-23.03986 -7.64062,-33.83984 -0.68,-3.08001 2.24094,-4.16016 3.96094,-5.66016 14.62,-12.78 29.44046,-25.38172 43.98046,-38.26172 4.94,-4.36 9.37836,-9.29969 13.81836,-14.17969 16.18,-17.82 35.94071,-31.63875 53.22071,-48.21875 7.24,-6.96 14.34117,-14.16125 22.70117,-20.28125 z m -170.06055,7.83985 c 1.48201,3.12209 1.62787,6.38266 1.51563,9.68164 -2.73375,-1.21088 -4.01005,0.74137 -5.27539,2.58008 -3.18,4.63999 -6.33969,9.27968 -9.67969,14.17968 -2.52,-5.56 5.79945,-21.5214 13.43945,-26.4414 z m 1.53125,9.84765 c 1.07743,4.14407 2.35105,8.24977 3.16797,12.41407 0.62,3.12 0.14039,5.79976 -2.09961,8.75976 -5.78,7.64 -10.77961,15.87883 -16.59961,23.79883 -0.06,-4.24 -1.63961,-8.25992 2.40039,-12.41992 4.82,-4.94 7.59883,-11.68047 12.79883,-16.48047 0.94,-0.86 2.02078,-1.95844 0.80078,-3.39844 -1.54,-1.82 -2.6007,-0.36086 -3.7207,0.61914 -3.58,3.16 -6.2399,7.06 -8.83984,11 -1.22002,1.86 -2.5004,3.64086 -4.4004,6.38086 -0.26,-5.18 0.96037,-7.81992 3.9004,-10.91992 5.36349,-5.64162 9.55649,-12.41173 12.59179,-19.75391 z m 155.0293,14.27344 c -1.96,4.44 -1.96133,4.44 -10.36133,7.5 1.72,-5.36 6.02133,-6.16 10.36133,-7.5 z M 98.732422,142.75 c 7.579998,4.7 14.858828,9.80141 19.298828,17.94141 0.36,0.66 0.50148,1.71898 1.02148,1.95898 13.82,6.12 22.82016,18.18032 33.66016,27.82031 21.34,18.96 42.09969,38.61996 62.67969,58.41992 8.28,7.98001 17.21976,15.24094 25.25976,23.46094 2.42,2.48 5.23946,4.21909 8.43946,5.53906 1.76,0.72002 3.19929,2.30094 2.77929,4.46094 -0.38,1.9 -2.27924,1.71899 -3.69921,1.95899 -11.16001,1.94 -22.21899,4.31992 -32.95899,7.91992 -3.14,1.06 -4.76133,0.14047 -6.36133,-2.51953 -12.16,-20.3 -27.99953,-37.83938 -42.51953,-56.35938 -14.42,-18.4 -29.51937,-36.36148 -42.85937,-55.52148 -8.14,-11.7 -15.48024,-23.96008 -24.740238,-35.08008 z m 231.638668,3.58008 c 3,5.68 0.70016,9.10101 -2.33984,13.04101 -5.06,6.56 -9.19828,13.81977 -13.73828,20.75977 -0.8,1.22 -1.10055,2.86 -3.06055,3.5 -1.18,-5.62 -2.32086,-10.45992 3.61914,-14.91992 5.38,-4.06 7.94008,-10.90063 11.58008,-16.64063 1.18,-1.86 2.49945,-3.64023 3.93945,-5.74023 z m 146.48047,0.66015 c -3.4,3.66 -7.17898,4.13993 -10.95898,5.91993 2.28,-4.3 3.35898,-4.85993 10.95898,-5.91993 z m -143.91992,11.70118 c 2.66,4.46 2.10109,7.57867 -0.87891,11.13867 -6.1,7.2 -10.04117,15.84 -14.70117,24 -1.02,1.76 -2.07976,3.50094 -3.25976,5.46094 -2.8,-7.1 -2.30032,-7.85961 1.67968,-13.59961 5.14,-7.4 9.66141,-15.26039 14.44141,-22.90039 0.78,-1.24 1.63875,-2.45961 2.71875,-4.09961 z m 134.64063,3.91992 c -3.78,4.54 -9.80094,4.15969 -14.46094,6.67969 4.18,-3.76 9.28094,-5.33969 14.46094,-6.67969 z m -329,2.08008 c 6.68,1.56 8.24015,6.58015 8.66015,12.66015 -7.16,-3.42 -8.32015,-5.16015 -8.66015,-12.66015 z m 9.83984,5.17968 c 8.6,3.54 5.83898,11.51922 9.45898,17.19922 -8,-3.46 -8.19898,-9.95922 -9.45898,-17.19922 z m 187.85937,0.32032 c 3.1,9.58 2.83977,18.95898 6.25977,27.45898 0.54,1.36 -0.49828,2.54109 -1.23828,3.62109 -9.36,13.64 -18.76172,27.2593 -28.76172,41.7793 -1.28,-4.88 0.10172,-7.57937 2.26172,-10.85937 7.16,-10.9 14.47961,-21.64118 22.09961,-32.20118 0.8,-1.08 2.42039,-2.71976 0.40039,-3.75976 -1.88,-0.94 -2.38156,1.41953 -3.10156,2.51953 -7,10.64 -15.17993,20.48086 -21.91993,31.38086 -0.04,-4.48 -0.55859,-8.16016 2.94141,-12.66016 7.48,-9.58 13.05844,-20.68015 19.39844,-31.16015 0.52,-0.88 0.58156,-1.98047 -0.39844,-2.48047 -1.26,-0.64 -2.10031,0.2807 -2.82031,1.2207 -4.64,6 -8.42008,12.52063 -12.08008,19.14063 -1.9,3.42 -3.80133,6.82039 -6.36133,11.40039 -0.12,-6.84 9.4e-4,-11.26039 4.96094,-15.90039 5.3,-4.96 8.03992,-12.63962 11.91992,-19.09961 1.92,-3.2 3.93945,-6.36039 6.43945,-10.40039 z m 126.44141,0.79882 c -4.76,4.78 -11.42172,5.16055 -17.26172,7.56055 4.42,-5.46 11.64172,-4.72055 17.26172,-7.56055 z m -305.58008,3.91993 c 3.9,2.34 4.18008,3.05992 7.08008,18.41992 -5.04,-3.52 -6.40008,-7.03993 -7.08008,-18.41992 z m 7.5,4.46093 c 5.64,6.14 4.89899,14.4993 7.45899,21.7793 -7.18,-5.64 -4.79899,-14.5393 -7.45899,-21.7793 z m 283.83985,4.32032 c 0.14,0.48 0.27992,0.93992 0.41992,1.41992 -4.42,1.62 -8.82072,3.23906 -13.7207,5.03906 2.83999,-7.18 8.86078,-4.77898 13.30078,-6.45898 z m -277.52149,0.66015 c 10.02,3.12 17.58149,8.58024 25.52149,13.24024 0.54,0.3 0.83851,1.23945 0.97851,1.93945 1.9,9.96 5.90078,19.41914 7.30078,29.61914 -6.74,-2.16 -9.97922,-6.33852 -10.69922,-13.47851 -0.76,-7.46003 -2.04054,-15.08165 -6.06054,-21.68165 -0.46,0.1 -0.94039,0.21985 -1.40039,0.33985 1.8,8.54 3.60117,17.10109 5.70117,27.12109 -3.38,-2.58 -5.6418,-3.84047 -6.3418,-7.48047 -1.28,-6.66 -3.31906,-13.1607 -5.03906,-19.7207 -0.58,-2.16 -0.86102,-4.47883 -4.04102,-5.79883 0.42,8.3 3.84039,15.47992 5.40039,24.41992 -9.1,-7.94 -6.22031,-19.13953 -11.32031,-28.51953 z m 283.32031,4.29883 c -7.62,6.74 -18.03898,7.24023 -26.95898,11.24023 7.46,-7.08 17.65898,-8.00023 26.95898,-11.24023 z m -4.32031,7.25977 c -2.86,6.4 -5.07875,10.77992 -12.21875,11.91992 -8.84,1.4 -17.18008,5.34101 -25.58008,9.04101 4.32,-4.74 7.09899,-10.78093 14.45899,-12.46093 7.68,-1.74 15.17984,-4.34 23.33984,-8.5 z m -249.53906,4.40039 c 5.02,2.1 9.13976,3.91968 10.25977,10.17968 1.67999,9.36 4.47999,18.52047 7,28.48047 -6.02002,-3.62 -10.33985,-7.03968 -11.33985,-14.17968 -1.12,-8.1 -3.77992,-15.98047 -5.91992,-24.48047 z m 143.98047,2.59961 c 2.58,9.58 5.71867,18.4214 6.13867,27.9414 0.06,1.24 -0.0789,2.49875 -0.87891,3.71875 -11.54,17.7 -22.98093,35.45969 -34.46093,53.17969 -0.26,0.42 -0.7786,0.66172 -1.5586,1.26172 -0.98,-6.8 -0.34062,-11.9807 4.35938,-17.7207 9.76,-11.96 18.30062,-24.94038 28.14062,-36.9004 0.78,-0.93996 2.23828,-1.98031 0.73828,-3.32031 -1.24,-1.1 -2.58,-0.4189 -3.5,0.6211 -2.86,3.26 -5.79992,6.45992 -8.41992,9.91992 -7.26,9.62 -14.3589,19.34 -21.8789,29.5 -1.86,-6.28 0.83976,-9.82071 4.75976,-13.72071 11.24,-11.33956 18.84086,-25.37921 27.38086,-38.69921 0.68,-1.06 1.7982,-2.52039 0.1582,-3.40039 -1.84,-1 -2.43882,0.82007 -3.29882,2.08007 -8.48,12.48 -17.02055,24.93891 -25.56055,37.37891 -1.06,1.54 -2.17938,3.04086 -3.85938,5.38086 -0.76,-4.9 -0.77961,-8.29914 1.90039,-12.11914 7.68,-10.96 14.51969,-22.50016 22.67969,-33.16016 2.5,-3.3 3.32016,-7.9214 7.16016,-11.9414 z m -132.5,4.12109 c 5.58,1.4 7.86008,4.81977 9.08008,9.75977 2.82,11.32 6.08015,22.51976 9.16015,33.75976 -4.66,-3.52 -8.58039,-6.90078 -9.90039,-12.80078 -2.26,-10.24 -5.43984,-20.27875 -8.33984,-30.71875 z m 230.93945,2.08008 c -3.48,6.22 -6.18047,11.14 -8.98047,16 -0.54,0.92 -1.39984,1.95883 -2.33984,2.29883 -12.76,4.5 -25.63953,8.60093 -40.01953,12.46093 2.98,-3.5 4.73898,-5.42109 8.45898,-6.62109 12.62,-4.08 24.80141,-9.45844 35.44141,-17.89844 -12.4,3.02 -22.88133,10.75953 -35.36133,14.51953 2.44,-4.44 5.90094,-6.94054 10.46094,-8.56054 10.4,-3.68 20.67984,-7.75922 32.33984,-12.19922 z m -220.33984,4.03906 c 6.52,2.36 9.1189,6.28125 10.3789,12.28125 2.14,10.32 5.42071,20.40008 8.22071,30.58008 0.34,1.24 0.94023,2.47969 0.24023,4.17969 -4.36,-1.88 -7.46017,-3.94141 -8.66015,-9.44141 -2.72,-12.46 -6.59969,-24.65961 -10.17969,-37.59961 z m 48.89258,5.31836 c -0.0524,0.20325 -0.12316,0.3991 -0.1836,0.59961 0.0522,-0.002 0.1052,-0.004 0.15821,-0.002 0.009,-0.19921 0.0288,-0.39809 0.0254,-0.59766 z M 234.11133,220.75 c 5.48,2.12 8.70086,4.40148 9.38086,10.52148 1.28,11.66 5.95898,22.55922 9.45898,33.69922 0.46,1.44 1.08117,2.87985 1.20117,4.33985 0.16,2.08 0.11883,4.69968 -1.70117,5.67968 -1.94,1.04 -3.24008,-1.38007 -4.58008,-2.58007 -2.9,-2.62 -6.43828,-4.63961 -8.73828,-9.09961 1.1,0.42 1.43828,0.54015 1.73828,0.66015 2.62,1.14 5.68094,4.51953 7.96094,1.51953 2.2,-2.9 -1.72047,-4.63992 -3.48047,-6.91992 -2.02,-2.62 -2.09961,-6.71867 -3.09961,-10.13867 -2.62,-9 -5.28062,-18.00164 -8.14062,-27.68164 z m 10.88086,7.18164 c 4.78,1.38 6.65914,4.21984 8.61914,7.83984 1.78,3.3 6.19992,4.90016 4.41992,10.16016 -1.28,3.84 -1.29945,8.11852 -2.93945,12.47852 -3.28,-9.92 -6.55961,-19.81852 -10.09961,-30.47852 z m 22.35937,0.0801 c -8.5e-4,0.005 9e-4,0.009 -0.002,0.0137 l 0.002,-0.002 z m 0,0.16016 c -0.0112,0.006 -0.0238,0.0108 -0.0351,0.0176 -0.002,0.011 -0.004,0.0222 -0.006,0.0332 0.008,-0.005 0.0159,-0.008 0.0234,-0.008 0.006,-0.005 0.0117,-0.0118 0.0176,-0.0176 z m 162.46094,3.51953 c -1.12,3.8 -2.14133,5.61906 -6.36133,6.03906 -8.82,0.84 -16.99937,4.70055 -25.35937,7.56055 -4.62,1.58 -9.21899,3.2207 -14.95899,5.2207 1.94,-3.32 3.25977,-6.12172 6.25977,-6.76172 13.6,-2.88 26.57992,-7.93859 40.41992,-12.05859 z m -77.38086,6.27929 c -0.76,6.18 -5.09883,10.82063 -7.29883,16.64063 6.64,0.78 5.91867,-6.01977 9.63867,-8.75977 0.18,2.2 -0.11898,4.15875 0.54102,5.71875 4.14,9.86 0.61961,17.40149 -5.90039,25.02149 -7.22,8.42 -12.93961,18.04 -18.09961,28 10.66,-10.1 17.75977,-23.01993 26.75977,-34.41992 4.82,2.36 1.92078,4.93992 -0.0801,6.91992 -7.52,7.52 -13.67961,16.11984 -19.59961,24.83984 -3.68,5.42 -7.10102,11.00023 -11.04102,16.24024 -2.6,3.48 -5.10039,6.97984 -9.90039,10.33984 0.22,-5.16 0.46078,-8.80024 3.30078,-12.74024 7.6,-10.32 14.37938,-21.23961 20.35938,-32.5996 1.74,-3.28 4.94125,-6.00102 4.78125,-10.04102 -0.48,-0.26 -0.98094,-0.5193 -1.46094,-0.7793 -6.72,10.62 -13.44016,21.21985 -20.16016,31.83985 0.28,-3.82 2.64047,-6.50141 4.48047,-9.44141 6.88,-11.04 12.93953,-22.59875 20.51953,-33.21875 0.98,-1.38 2.98063,-3.31984 0.64063,-4.83984 -2.16,-1.4 -2.71961,1.34 -3.59961,2.5 -10.08,13.26 -17.44039,28.23925 -26.40039,42.19921 -1.54,2.38005 -2.58078,6.87985 -5.80078,5.83985 -3.16,-1.02 -1.35844,-5.30016 -1.39844,-8.16016 -0.04,-2.76 0.95992,-4.99922 3.41992,-6.69922 4.2,-2.88 5.85922,-7.7607 8.69922,-11.7207 8.96,-12.4 15.72031,-26.17883 24.32031,-38.79883 0.94,-1.38 1.9393,-2.70086 3.2793,-3.88086 z m -87.13281,1.07813 c 0.008,-0.0121 -0.0235,0.0252 -0.12305,0.13672 -0.0101,0.0527 -0.007,0.0413 -0.0117,0.0644 h 0.002 c 0.0602,-0.10205 0.12376,-0.18687 0.13281,-0.20117 z m 1.42773,0.41601 c -0.002,9.8e-4 -0.002,0.003 -0.004,0.004 4e-4,0.005 -3.8e-4,0.009 0,0.0137 10e-4,-0.006 0.003,-0.0115 0.004,-0.0176 z m -1.76172,0.75977 c -0.007,0.0417 -0.0142,0.0834 -0.0215,0.125 0.005,-0.0123 0.01,-0.0315 0.01,-0.0234 -0.006,0.0199 -0.0111,0.0335 -0.0156,0.0469 0.01,-0.0254 0.02,-0.0507 0.0293,-0.0762 -10e-4,-0.0136 0.001,-0.0129 -0.002,-0.0313 0,-0.0136 -7e-5,-0.0274 0,-0.041 z m 158.82032,0.35937 c 0.36343,-0.0153 0.76203,0.0466 1.20703,0.22657 -1.58,5.3 -4.50102,7.9207 -10.04102,9.2207 -12.64,2.9 -24.95945,7.21875 -37.93945,9.21875 2.62,-5.56 2.64008,-5.4793 9.58008,-6.7793 11.9,-2.22 23.40047,-5.8207 34.48047,-10.7207 0.84,-0.375 1.62257,-1.12008 2.71289,-1.16602 z m -209.71289,0.84766 c 2.04,2.02 4.14023,4.07867 6.24023,6.13867 -4.66,0.72 -5.50023,-2.69867 -6.24023,-6.13867 z m 50.11718,3.68359 c -0.0239,8.6e-4 -0.0703,0.0187 -0.11133,0.043 0.004,-1.1e-4 0.008,0 0.0117,0 0.0274,-1e-5 0.0547,0.004 0.082,0.01 0.008,-0.0111 0.0197,-0.0196 0.0273,-0.0312 0.01,-0.0154 0.005,-0.022 -0.01,-0.0215 z m -1.09961,6.17579 c -0.0167,0.0161 -0.0256,0.0268 -0.041,0.0449 0.004,-0.002 0.007,-0.004 0.0117,-0.006 0.0119,-0.0128 0.0235,-0.026 0.0352,-0.0391 -0.002,-3.4e-4 -0.004,3.2e-4 -0.006,0 z m -0.1875,0.38086 v 0.002 c 0.001,-2.8e-4 0.003,2.8e-4 0.004,0 -10e-4,-5.3e-4 -0.003,-3.7e-4 -0.004,-0.002 z m 3.2793,0.90234 c -0.008,0.0171 -0.0132,0.0381 -0.0195,0.0566 0.0193,-0.0185 0.0374,-0.0381 0.0566,-0.0566 -0.003,-1.3e-4 -0.005,1e-4 -0.008,0 -0.009,-3.5e-4 -0.0197,1e-5 -0.0293,0 z m 149.80469,1.42773 c 0.36656,0.0169 0.74648,0.11961 1.14648,0.34961 -0.42,4.3 -2.98101,5.33953 -7.04101,6.01953 -9.48,1.56 -18.80071,4.0599 -28.22071,6.01953 -2.9,0.60001 -5.91843,0.72055 -8.89843,1.06055 0.04,0.68 0.0791,1.33953 0.11914,2.01953 13.52,3.96 25.74004,-3.3389 39.08008,-5.8789 -1.58002,3.68 -1.36071,8.79937 -7.72071,5.85937 -1.08,-0.52 -1.43867,-0.31937 -1.63867,1.64063 -0.12,1.08 -0.64023,1.33898 -1.24023,1.45898 -10.22,2.12 -20.22048,6.5407 -30.90039,1.2207 -3.84,-1.9 -3.46047,-3.02109 -1.48047,-6.12109 3.08,-4.8 6.78078,-5.23898 12.30078,-5.45898 10.7,-0.44 21.1789,-3.60016 31.3789,-7.16016 1.035,-0.36 2.01555,-1.07992 3.11524,-1.0293 z m -153.54688,0.64258 c 0.002,-0.006 -0.005,0.007 -0.01,0.0156 0.001,-3.3e-4 0.003,3.2e-4 0.004,0 0.002,-0.007 0.004,-0.008 0.006,-0.0156 z m -0.1289,0.42578 c -0.009,0.0222 -0.0198,0.0435 -0.0312,0.0645 -10e-4,0.007 -0.003,0.0143 -0.004,0.0215 0.0193,-0.0104 0.0388,-0.0209 0.0566,-0.0312 -0.008,-0.0191 -0.0152,-0.0374 -0.0215,-0.0547 z m -0.22852,3.76563 c 0.001,0.005 -2.4e-4,0.0106 0.002,0.0156 0.01,0.0309 0.0532,0.11677 0.0391,0.0879 -0.0162,-0.0334 -0.027,-0.0689 -0.041,-0.10351 z m 0.38086,8.18945 c 0.008,0.0219 0.0164,0.0429 0.0254,0.0644 0.002,0.006 -0.0107,-0.0235 -0.006,-0.0195 0.0139,0.009 0.0412,0.0515 0.0332,0.0371 -0.0158,-0.0283 -0.0346,-0.055 -0.0527,-0.082 z m 0.0801,3.07813 c -0.01,0.0142 -0.0285,0.0425 -0.0352,0.0664 -0.003,0.009 -0.002,0.0131 -0.004,0.0215 0.0137,-0.0289 0.0262,-0.0586 0.0391,-0.0879 z m -0.0977,0.47656 c 10e-4,0.0165 0.002,0.0343 0.008,0.0586 0.007,0.0324 0.0438,0.12585 0.0332,0.0937 -0.0177,-0.0521 -0.0308,-0.10251 -0.041,-0.15234 z m 0.35352,3.01758 c -0.0176,0.03 -0.0718,0.15505 -0.0899,0.20703 -0.002,0.007 -0.003,0.0198 -0.004,0.0293 0.0338,-0.0757 0.074,-0.1486 0.0957,-0.22851 0.005,-0.0177 0.004,-0.0154 -0.002,-0.008 z m -0.0137,0.24804 c 0.006,-0.0264 -0.0183,0.0526 -0.0274,0.0781 -6.8e-4,0.006 -4e-4,0.01 -0.002,0.0156 0.0113,-0.0357 0.0243,-0.074 0.0293,-0.0937 z m -0.0762,0.0879 c 7.9e-4,0.004 5.2e-4,0.0101 0.002,0.0137 0.003,0.0128 0.0196,0.0478 0.0156,0.0351 -0.005,-0.0167 -0.0114,-0.0324 -0.0176,-0.0488 z m 0.0566,0.23438 c 0.005,0.0145 0.009,0.0288 0.0156,0.0449 v -0.0137 c -0.005,-0.009 -0.0108,-0.0226 -0.0156,-0.0312 z m 143.52735,0.2832 c -3.14,7.5 -3.14141,7.4993 -14.94141,4.2793 5.42,-1.56 9.84141,-2.8193 14.94141,-4.2793 z m -143.35547,0.57617 c 3e-4,0.002 -3.7e-4,0.002 0,0.004 0.009,0.0172 0.0353,0.0701 0.0273,0.0527 -0.004,-0.009 -0.008,-0.0181 -0.0117,-0.0273 -0.005,-0.0113 -0.0109,-0.0174 -0.0156,-0.0293 z m -0.0605,0.81836 c 7.7e-4,0.003 5.2e-4,0.005 0.002,0.008 0.0115,0.0399 0.0696,0.15028 0.0508,0.11328 -0.0224,-0.044 -0.0392,-0.0825 -0.0527,-0.1211 z m 102.40625,2.90821 c 0.94,0.0453 1.97797,0.21609 3.16797,0.49609 16.12,3.8 32.48117,6.44078 48.70117,9.80078 22.7,4.72 45.3,9.86 68,14.5 20.12,4.1 40.4,7.4407 60.5,11.7207 11.64,2.48 23.34,4.50032 35,6.82032 1.6,0.32 3.1793,0.75867 4.7793,1.13867 -23.52,-0.96 -46.61898,3.42109 -69.95898,4.12109 -1.67399,0.0587 -3.3313,0.24825 -4.81641,-0.71875 -0.16832,0.0766 -0.38217,0.12305 -0.64258,0.12305 h -0.75976 c -0.0112,0 -0.0221,-4.4e-4 -0.0332,0 -0.16456,0.046 -0.36048,0.0625 -0.59375,0.0293 -0.40453,-0.0576 -0.62488,-0.0448 -0.8457,-0.0254 -0.21953,0.004 -0.42329,0.004 -0.63281,-0.0684 -0.0136,-8.1e-4 -0.0284,-0.005 -0.041,-0.004 -0.14608,0.0137 -0.29105,0.0118 -0.4375,0.01 -0.17924,-0.0219 -0.37142,0.0211 -0.54883,-0.002 -0.10232,-0.0133 -0.205,-0.0349 -0.30664,-0.0527 -0.0169,-0.008 -0.003,-5e-5 -0.0176,-0.008 -0.0463,0.002 -0.10344,0.004 -0.10352,0.004 -0.20271,0.0101 -0.35799,-0.0203 -0.55664,-0.0898 0.003,0.002 0.006,0.004 0.01,0.006 -0.11537,0.0227 -0.24109,-0.0146 -0.35937,-0.0469 -0.14664,0.0159 -0.29615,0.009 -0.44336,0.008 -0.13952,1.9e-4 -0.27845,2.3e-4 -0.41797,0 -0.0979,-2.6e-4 -0.19507,-2e-5 -0.29297,0 h -0.25781 -0.4043 c -0.14467,-0.0121 -0.2955,0.0179 -0.43945,0 -0.1,-0.0124 -0.19943,-0.0323 -0.29883,-0.0488 -0.0587,-0.0201 -0.11538,-0.046 -0.17578,-0.0605 -0.0188,-0.005 0.0366,0.0162 0.0508,0.0293 0.003,0.003 -0.01,0.006 -0.0137,0.006 -0.0491,0.004 -0.0974,0.005 -0.14648,0.008 -0.14849,0.008 -0.16366,0.007 -0.20118,0.008 -0.0459,0.0322 -0.0927,0.0634 -0.14453,0.084 -0.18797,0.0747 -0.29155,0.0707 -0.41797,0.0527 -0.0738,0.0174 -0.14785,0.0349 -0.22265,0.0469 -0.14079,0.0222 -0.21113,-0.009 -0.14063,0.0195 -0.16394,0.0445 -0.33939,0.0704 -0.50976,0.0332 -0.003,-5.7e-4 -0.005,5.9e-4 -0.008,0 0.0545,0.004 -0.12694,0.0117 -0.15234,0.0117 -0.16217,-9.9e-4 -0.32415,-5e-5 -0.48633,0 -0.20024,-5e-5 -0.40132,0 -0.60156,0 -0.0351,0 -0.0707,-0.004 -0.10547,0 -0.0428,0.005 -0.0804,0.0331 -0.12305,0.0391 -0.23262,0.0328 -0.44331,0.0397 -0.67578,0.0293 -0.0384,-0.003 -0.0769,-0.0155 -0.11523,-0.0117 -0.008,9e-4 0.0216,0.0135 0.0156,0.0195 -0.0143,0.013 -0.0357,0.0136 -0.0547,0.0176 -0.18219,0.034 -0.33987,0.0422 -0.52344,0.0332 -0.0992,-0.0181 -0.19879,-0.008 -0.29883,-0.006 -0.0582,-0.002 -0.0939,4.3e-4 -0.13476,0.002 -0.0324,0.0189 -0.0619,0.0423 -0.0957,0.0586 -0.0629,0.0302 -0.13928,0.013 -0.20898,0.0137 -0.25171,0.002 -0.50603,-0.0155 -0.75781,-0.0195 -0.1889,0.002 -0.37754,0.008 -0.56641,0.008 h -0.002 c -0.0358,-5e-5 -0.0716,3.1e-4 -0.10743,0 -0.0509,0.0326 0.006,0.023 0.0684,0.01 -0.10683,0.0305 -0.20777,0.0528 -0.25781,0.0566 -0.003,5.9e-4 -0.005,0.002 -0.008,0.002 -0.0166,0.003 -0.0233,6.4e-4 -0.0508,0.002 -0.0347,0.0129 -0.0657,0.0215 -0.0977,0.0312 -0.0308,0.008 -0.0215,0.007 -0.0449,0.0137 0.002,-1.6e-4 0.004,2.4e-4 0.006,0 -0.0572,0.019 -0.10885,0.036 -0.14063,0.0391 -0.0293,0.009 -0.10683,0.0246 -0.1289,0.0273 -0.0515,0.0166 -0.13439,0.042 -0.19922,0.0547 0.0656,-0.0145 0.12909,-0.0347 0.19336,-0.0547 -0.0275,0.003 -0.0459,0.007 -0.13477,0.0117 -0.0165,0.0114 -0.0578,0.038 -0.0723,0.0469 -7.3e-4,4.5e-4 -0.003,0.002 -0.004,0.002 -0.0797,0.0486 -0.14838,0.0656 -0.33398,0.0703 h -0.002 c -0.005,0.002 -0.0101,0.006 -0.0156,0.008 -0.18467,0.0616 -0.32949,0.0568 -0.51758,0.0332 -0.009,-0.002 0.0183,0.003 0.0273,0.004 -0.24351,0.0108 -0.46847,0.0149 -0.70508,-0.0723 -0.0832,-0.0307 -0.15386,-0.0882 -0.23046,-0.13281 0.007,0.008 0.0275,0.0144 0.0215,0.0234 -0.006,0.009 -0.0191,-0.009 -0.0293,-0.0117 -0.10104,-0.0309 -0.20359,-0.0567 -0.30468,-0.0879 0.0278,0.007 0.0535,0.0245 0.082,0.0215 0.14902,-0.0173 0.59066,-0.0556 0.44336,-0.084 -0.93395,0.0657 -0.56876,0.0928 -0.67774,0.0391 -0.11989,0.009 -0.23724,0.0107 -0.35742,0.008 0.28236,0.0883 -0.008,0.0125 -0.25195,-0.0645 -0.10461,0.007 -0.20799,0.002 -0.31641,0.002 -0.12504,10e-4 -0.2519,0.002 -0.37695,0.002 -0.0979,-9e-5 -0.19507,0 -0.29297,0 -0.10045,-3e-5 -0.20033,-10e-6 -0.30078,0 h -0.39258 -0.41016 -0.34179 -0.42969 -0.36523 -0.17969 c -0.002,0.008 -0.0325,0.0215 -0.0488,0.0274 -0.10771,0.0387 -0.21623,0.0814 -0.32813,0.10546 -0.19574,0.0422 -0.38881,0.008 -0.58007,-0.0332 0.19238,0.0282 -0.19213,0.0234 -0.23243,0.0234 -0.0182,-2e-4 -0.0365,1.7e-4 -0.0547,0 -0.0888,0.0296 -0.13275,0.0397 -0.58789,0.11328 -0.52812,0.0854 -0.76905,0.0255 -0.85352,-0.11523 -0.0502,-10e-6 -0.10031,0 -0.15039,0 -0.13998,-10e-6 -0.27994,0 -0.41992,0 -0.0113,-6.7e-4 -0.0134,2.9e-4 -0.0234,0 -0.23376,0.0986 -0.34452,0.0597 -0.70312,0.0547 0.34785,-0.0138 -0.23897,0.004 -0.28907,0.004 -0.14291,-4.8e-4 -0.28678,0.002 -0.42968,0.002 -0.2569,0.0139 -0.50876,-0.0253 -0.75977,-0.0781 -0.0796,0.006 -0.0556,0.002 -0.0254,-0.002 -0.002,2.1e-4 -0.002,-2.1e-4 -0.004,0 -0.14575,0.0186 -0.079,0.0218 -0.26953,0.0234 -0.16699,-0.006 -0.33489,-0.005 -0.50195,-0.004 -0.11685,5.3e-4 -0.23276,0 -0.34961,0 0.016,0.002 -0.0125,-2.5e-4 -0.0137,0 0.008,5.5e-4 0.0186,-7.5e-4 0.0137,0.006 -0.0205,0.025 -0.0603,0.0194 -0.0918,0.0254 -0.23711,0.0433 -0.22218,0.0386 -0.41406,0.043 -0.0187,0.0103 -0.0354,0.024 -0.0547,0.0332 -0.0971,0.0463 -0.43169,0.0225 -0.52343,0.0195 -0.25966,-0.009 -0.5195,-0.0118 -0.7793,-0.0117 -0.30216,0.0686 -0.60646,0.1311 -0.91211,0.1875 -0.36212,0.0286 -0.72311,-0.0113 -1.08594,-0.006 -0.0988,-0.0137 -0.19807,-0.0273 -0.29687,-0.041 -0.062,-0.0188 -0.12195,-0.0444 -0.18555,-0.0566 -0.009,-0.002 0.0217,0.0184 0.0137,0.0234 -0.0154,0.01 -0.0365,0.006 -0.0547,0.004 -0.24549,-0.0217 -0.22203,-0.0214 -0.42382,-0.0645 -0.007,0.002 -0.0175,-0.002 -0.0195,0.004 -0.002,0.006 0.0362,0.006 0.0352,0.006 -0.16645,0.0134 -0.10409,0.0107 -0.22851,0.0117 -0.16666,-0.005 -0.33331,-0.005 -0.5,-0.004 -0.25509,0.016 -0.5005,-0.0234 -0.74219,-0.10742 0.14226,0.0672 0.58736,0.229 -0.39453,-0.0371 -0.0498,-0.0135 -0.0903,-0.0455 -0.13282,-0.0762 -0.0325,-0.002 -0.0654,-0.002 -0.0976,-0.006 -0.0513,-0.006 -0.10029,-0.0241 -0.15039,-0.0371 0.002,0.004 0.008,0.007 0.006,0.01 -0.003,0.003 -0.0106,0.003 -0.0156,0.002 -0.087,-0.0134 -0.17386,-0.0257 -0.25976,-0.0449 -0.0454,-0.0102 -0.17892,-0.0451 -0.13282,-0.0391 0.0689,0.009 0.13803,0.0135 0.20703,0.0215 -0.0948,-0.0232 -0.19031,-0.0452 -0.28515,-0.0684 0.0399,0.01 0.0781,0.007 0.17578,-0.0117 -0.16836,-0.009 -0.15988,-0.004 -0.22852,-0.004 0.005,0.002 0.0167,0.006 0.0215,0.008 -0.0118,-0.003 -0.0234,-0.007 -0.0352,-0.01 -0.10445,0 -0.25875,-0.0172 -0.2832,-0.0254 -0.0922,0.006 -0.18554,0.004 -0.26563,0.004 -0.0722,6.6e-4 -0.14457,0.002 -0.21679,0.002 -0.0215,0.01 -0.0417,0.0229 -0.0645,0.0293 -0.0847,0.0237 -0.54527,0.08 -0.0547,0.0176 -0.33697,0.1311 -0.67193,0.0663 -1.01563,0.0703 -0.18126,0.006 -0.36165,0.003 -0.54297,0.002 -0.2514,0.0105 -0.40934,-0.0165 -0.67383,-0.0996 -0.0357,-0.0112 -0.0682,-0.0297 -0.10156,-0.0469 -0.1915,0.0438 -0.3932,0.0358 -0.58789,0.0254 -0.12179,-0.002 -0.24345,0.002 -0.36523,0.002 -0.18668,-6.7e-4 -0.37387,-1.5e-4 -0.56055,0 -0.67928,-0.12817 -0.0419,0.0105 -0.46875,-0.12109 -0.0286,-0.009 0.0542,0.0279 0.082,0.0391 -0.21565,-0.0282 -0.17568,-0.0161 -0.37305,-0.0723 0.20158,0.095 -0.3469,-0.0429 -0.375,-0.0469 -0.0275,-0.004 -0.0542,0.006 -0.082,0.008 -0.13933,0.008 -0.27837,0.0152 -0.41797,0.0156 -0.17929,5.8e-4 -0.33506,-0.022 -0.4707,-0.0605 -11.13987,0.44243 -22.28517,0.87441 -33.39258,2.19141 -11.2,1.34 -22.98,-0.20039 -34.5,-0.40039 -12.08,-0.2 -24.12015,-0.0604 -36.16015,-1.90039 -9.76,-1.5 -19.59998,1.00078 -29.41992,0.80078 -3,-0.06 -6.02063,0 -9.14063,0 2.12,-7.8 8.61992,-12.57985 12.91992,-18.83985 6.28,-9.14 12.9211,-18.04015 20.6211,-26.16015 2.46,-2.595 4.39093,-3.59298 7.21093,-3.45704 z m -58.125,3.11523 c 0.0263,0.0786 0.0471,0.15524 0.0684,0.23242 -0.003,-0.0149 -0.003,-0.0301 -0.006,-0.0449 -0.0138,-0.065 -0.0836,-0.2505 -0.0625,-0.1875 z m 0.10742,0.34766 c -0.004,-10e-4 -0.006,0.002 -0.008,0.004 0.004,0.0163 0.008,0.0326 0.0117,0.0488 0.005,-0.0232 0.0115,-0.0487 -0.004,-0.0527 z m -0.42578,1.70312 c 1.7e-4,0.008 0.0171,0.0727 0.0332,0.13672 -0.0157,-0.0908 -0.0335,-0.15112 -0.0332,-0.13672 z m -49.56836,4.11133 c 3.36,-0.78 5.72149,2.59945 7.02149,4.93945 7.06,12.6 17.85953,22.5 25.01953,35 0.36,0.64 0.65969,1.32086 1.17969,2.38086 -4.14,1.16 -6.55985,1.75883 -9.33985,-3.20117 -5.72,-10.2 -14.08007,-18.66016 -21.58007,-27.66016 -2.26,-2.72 -4.4411,-5.47882 -7.1211,-8.79882 -1.62,4.18 0.86149,6.33898 2.52149,8.45898 7.34,9.36 15.38,18.20109 22,28.12109 0.88,1.34 3.81904,2.66 1.69922,4.5 -2.04001,1.78 -4.21969,0.91907 -6.17969,-1.46093 -9,-10.94 -18.24047,-21.67988 -27.48047,-32.41993 -1.3,-1.48 -2.27938,-3.45898 -5.85938,-4.45898 8.12,15.54 20.79993,26.25992 30.41993,39.91992 -2.26,0.62 -3.72063,1.56016 -5.14063,-0.33984 -8.9,-12 -18.99969,-22.96133 -29.17969,-33.86133 -1.26,-1.36 -2.59906,-2.73891 -3.03906,-4.87891 8.08,-3.22 16.69859,-4.28023 25.05859,-6.24023 z m -30.40039,7.14063 c 1.32,-0.32002 2.12125,0.37843 2.78125,1.39843 8.3,12.74 20.12016,22.50156 29.16016,34.60157 0.56,0.74 1.09875,1.45929 1.71875,2.27929 -4.56,1.06 -4.49906,0.98016 -7.03906,-1.83984 -8.86,-9.8 -17.75922,-19.58078 -26.69922,-29.30078 -0.94,-1 -1.84063,-2.4387 -4.64063,-2.13867 7.08,13.24 18.77907,22.15953 27.53907,33.51953 -4.28,1.8 -6.57891,-0.71977 -8.87891,-3.25977 -8.14,-8.92 -16.27992,-17.86125 -24.41992,-26.78125 -0.7,-0.8 -1.30141,-1.93937 -3.94141,-0.85937 6.76,11.96 17.98,20.02039 26,30.90039 -4.12,1.2 -6.94008,0.35867 -9.58008,-2.86133 -8.26,-10.06 -16.79851,-19.8786 -25.47851,-30.0586 8.02,-1.92 15.73851,-3.7596 23.47851,-5.5996 z m -26.92968,6.23632 c 0.66,0.1475 1.26,0.57289 1.75,1.46289 5.82,10.54 15.00023,18.40032 22.24023,27.82032 0.66,0.84 1.21992,1.76031 1.91992,2.82031 -3.66,1.2 -5.95976,0.31922 -8.25976,-2.30078 -6.72,-7.66 -13.74063,-15.08008 -20.64063,-22.58008 -1.38,-1.5 -2.65937,-3.16013 -5.35937,-3.24024 5.06,11.12001 15.46062,17.92016 22.64062,27.66016 -1.78,1.3 -3.33945,0.91953 -4.43945,-0.48047 -7.6,-9.66 -16.50008,-18.01992 -26.58008,-26.41992 5.42,-1.7 9.99914,-3.17906 14.61914,-4.53906 0.73,-0.22 1.44938,-0.35063 2.10938,-0.20313 z m 78.29101,4.3418 c 8.16,7.66 16.30008,15.34109 25.08008,23.62109 -5.62,1.46 -9.03992,2.65961 -11.91992,-3.90039 -3.1,-7.06 -8.58016,-13.1607 -13.16016,-19.7207 z m -99.70117,1.24805 c 0.89,-0.1175 1.7,0.10211 2.5,0.91211 8.28,8.38 16.52141,16.80132 24.94141,25.36132 -3.58,0.18 -6.68141,-0.12062 -9.44141,-3.14062 -6.68,-7.36 -13.67852,-14.39953 -20.97852,-22.01953 1.12,-0.54 2.08852,-0.99578 2.97852,-1.11328 z m -7.91406,2.7207 c 2.185,0.3525 4.02406,1.93234 5.91406,4.65234 4.26,6.14 9.90031,11.36039 15.32031,17.40039 -4.76,2.24 -7.83976,0.47977 -10.75976,-2.24023 -6.04,-5.66 -12.15899,-11.25961 -18.45899,-17.09961 3.27,-2.19 5.79938,-3.06539 7.98438,-2.71289 z m -12.44531,2.27148 c 1.17999,-0.32 2.12039,0.0602 2.90039,1.16016 4.9,6.94 11.39984,12.48102 16.33984,19.54102 -9.74,-2.14 -13.38031,-12.38047 -22.82031,-17.48047 2.98,7.66 8.53976,11.81961 13.25976,17.09961 -4.76,1.42 -8.06,0.53968 -10.5,-3.32032 -3.26,-5.2 -9.01968,-7.95929 -13.17968,-13.27929 4.71996,-2.3 9.51999,-2.48071 14,-3.72071 z m -18.64649,4.77735 c 1.8025,0.2425 3.39688,1.60297 5.04688,4.04297 2.9,4.28 7.07937,7.68117 11.85937,12.70117 -12.04,0.04 -15.19922,-10.30008 -23.19922,-14.08008 2.48,-2.03 4.49047,-2.90656 6.29297,-2.66406 z m -11.37305,2.42383 c 5.18,4.68 10.33951,9.35906 15.51954,14.03906 -0.38,0.48 -0.76063,0.93992 -1.14063,1.41992 -6.66,-2.96 -9.67914,-10.13851 -15.61914,-13.97851 0.42,-0.5 0.82023,-0.98047 1.24023,-1.48047 z m -8.08593,2.41406 c 8.17988,0.64176 10.75984,8.59328 16.46484,12.42578 -5.62,2.54 -5.07984,2.2393 -20.33984,-12.2207 1.4225,-0.24 2.70644,-0.29676 3.875,-0.20508 z m -10.11329,2.16015 c 3.89532,-0.49405 6.04368,1.84961 14.63868,11.22461 -5.9,2.04 -10.85992,-0.57945 -19.41992,-9.93945 1.98999,-0.64 3.48281,-1.12047 4.78124,-1.28516 z m -9.62109,1.78516 c 2.08,0.22 3.81086,1.3393 5.38086,3.7793 1.8,2.8 4.57891,4.9614 7.87891,8.4414 -9.16,-0.1 -12.92024,-7.69961 -20.740238,-10.5996 2.97,-1.16004 5.400512,-1.8411 7.480468,-1.6211 z m 404.37109,0.93555 c -0.006,-0.001 0.0116,0.009 0.0176,0.01 0.011,0.002 0.0221,0.003 0.0332,0.004 -0.0166,-0.004 -0.0348,-0.01 -0.0508,-0.0137 z m -7.16992,0.0273 c -0.0818,0.0448 -0.15747,0.099 -0.23437,0.15235 0.0752,-0.0294 0.0586,-0.0222 0.16992,-0.0684 0.0218,-0.0281 0.0956,-0.10104 0.0645,-0.084 z m 8.03516,0.0254 c 0.0262,0.0151 0.11762,0.0575 0.13672,0.0625 0.006,0.002 0.0131,4.9e-4 0.0195,0.002 -0.0684,-0.0292 -0.17284,-0.074 -0.15625,-0.0645 z m -34.9082,0.14453 c -0.0118,-0.005 0.0153,0.0214 0.0273,0.0254 0.0144,0.005 0.03,0.005 0.0449,0.008 -0.0237,-0.0122 -0.0475,-0.0235 -0.0723,-0.0332 z m 2.91015,0.0254 c -0.008,-0.003 0.0154,0.01 0.0234,0.0117 0.007,0.002 0.0143,0.002 0.0215,0.004 -0.0218,-0.009 -0.007,-0.002 -0.0449,-0.0156 z m -383.578122,0.0742 c 0.519998,0.0325 0.988906,0.23711 1.378906,0.78711 3,4.16 7.480972,6.76141 11.541016,10.44141 -10.160044,3.98 -14.720391,-6.08055 -22.900391,-8.06055 1.88,4.92 7.220703,5.65914 9.720703,9.61914 -8.6,2.24 -11.801016,-4.83984 -18.041016,-8.83984 6.46,-1.44 11.561094,-2.51922 16.621094,-3.69922 0.59,-0.14 1.159687,-0.28055 1.679688,-0.24805 z m 391.482422,0.0117 c -0.0666,0.0446 -0.13049,0.0949 -0.19531,0.14258 0.0802,-0.0252 0.11493,-0.0483 0.19531,-0.14258 z m -6.60742,0.17188 c 0.004,0.001 0.008,0.003 0.0117,0.004 0.0466,0.013 0.19478,0.01 0.14648,0.006 -0.0525,-0.005 -0.10549,-0.008 -0.1582,-0.01 z m 5.91015,0.0742 c -0.0101,-10e-4 0.0215,0.007 0.0312,0.008 0.0321,0.004 0.0651,0.0157 0.0957,0.008 -0.015,-0.002 -0.0358,-5.5e-4 -0.12696,-0.0156 z m -125.82617,3.75195 c 2.78375,0.0212 5.57133,0.16305 8.36133,0.49805 4.24,0.52 7.80008,1.65976 11.08008,4.75976 10.02,9.46 20.35914,18.5993 30.61914,27.7793 1.1,0.98 2.3,3.52117 4,1.70117 1.6,-1.7 -0.91992,-2.99953 -1.91992,-4.01953 -8.98,-9.22 -19.58016,-16.60063 -29.16016,-25.14063 -1.08,-0.98 -2.23883,-1.86054 -4.29883,-3.56054 6,-0.16 10.1586,-0.12032 14.0586,4.17968 7.72,8.52 16.22086,16.34094 24.38086,24.46094 0.68,0.66 1.26054,1.49951 2.06054,1.93945 1.36,0.76 2.75985,3.01985 4.33985,1.33985 1.9,-2 -0.44024,-3.29953 -1.74024,-4.51953 -9.34,-8.78 -18.70125,-17.54 -28.28125,-26.5 3.46,-1.86 5.5,-1.33938 8,1.14062 10.02,10.02 21.36149,18.51921 33.02149,27.53906 -10.22,4.86001 -20.72133,7.09993 -30.86133,10.41993 -1.12,0.38 -1.83844,-0.0798 -2.89844,-0.83985 -13.3,-9.62 -24.2618,-21.99937 -37.3418,-31.85937 -3.86,-2.9 -7.9382,-5.52031 -12.6582,-7.32031 7.6,6.74 15.2193,13.4407 22.7793,20.2207 7.74,6.9 14.8389,14.49867 23.8789,21.13867 -8.54,2.92 -16.61961,4.96094 -25.09961,5.46094 -2.28,0.12 -3.36031,-1.32094 -4.82031,-2.46094 -13.46,-10.5 -25.49937,-22.43859 -36.35937,-35.55859 -2.2,-2.66 -7.35907,-4.66 -6.03907,-8 1.28,-3.22 6.51891,-1.70024 9.87891,-1.74024 8.34,-0.105 16.66828,-1.12234 25.01953,-1.05859 z m 101.61133,0.21094 c 3.63281,-0.0169 6.60969,1.4114 9.42969,4.0664 6.6,6.22 13.65976,11.90078 22.75976,15.80078 -4.2,2.3 -7.12039,2.9193 -10.90039,-0.2207 -7.96,-6.6 -16.42015,-12.55867 -25.16015,-19.13867 1.375,-0.335 2.66015,-0.50219 3.87109,-0.50781 z m -10.52734,0.40234 c 2.49375,-0.15937 4.17765,0.93445 6.09765,3.06445 5.7,6.34 13.11938,10.76006 19.85938,15.91992 1.46,1.10001 3.32008,1.84016 4.08008,3.66016 -4.82,3.02 -7.14086,-1.15961 -10.38086,-3.09961 -8.36,-5.02 -15.11899,-11.80094 -22.45899,-18.96094 1.05,-0.34 1.97149,-0.53086 2.80274,-0.58398 z m 20.85742,0.0254 c 13.68,-0.66 19.27906,11.61969 28.53906,18.17969 -11.82,-2.24 -19.97906,-10.47969 -28.53906,-18.17969 z m -399.322268,0.21875 c 2.721875,0.13672 4.973438,2.33984 9.960938,7.83984 -4.1,1.36 -7.178828,-0.0194 -10.298828,-2.35937 -1.785845,-1.34419 -2.946307,-3.73718 -5.582031,-3.82422 2.545528,-1.08374 4.331028,-1.73606 5.919921,-1.65625 z m 413.322268,0.7207 c 11.56,0.3 17.09953,10.03907 25.01953,16.03907 -11.36,-0.62 -16.79953,-10.49907 -25.01953,-16.03907 z m 49.59961,0.2793 24.93945,7.5 c -3.74,0.42 -21.71945,-3.6 -24.93945,-7.5 z m -125.89063,0.0195 c 4.84781,0.18094 8.63586,2.17555 12.13086,6.06055 6.5,7.2 13.77914,13.70086 21.11914,20.88086 -2.46,1.7 -4.2389,2.49883 -6.3789,0.79883 -10.82,-8.6 -22.10157,-16.67836 -32.10157,-27.31836 1.88,-0.34 3.61454,-0.48219 5.23047,-0.42188 z m -346.097654,0.31055 c 0.986932,-0.0576 1.911642,0.0902 2.851563,0.375 -0.74668,2.9125 2.690326,3.57388 3.617187,6.25586 -3.8,-1.32 -6.439844,-3.50031 -9.839844,-5.82031 1.25,-0.49 2.343594,-0.75055 3.371094,-0.81055 z m 378.164064,0.1582 c 1.485,0.1625 2.8632,0.86297 4.2832,2.29297 7.54,7.62 16.00117,14.23914 24.70117,21.11914 -4.2,2.2 -7.09984,1.92055 -10.83984,-0.93945 -8.26,-6.36 -15.78055,-13.36102 -23.06055,-21.54102 1.84,-0.72 3.43102,-1.09414 4.91602,-0.93164 z M 420.19141,333.25 c 2.64,-0.36 6.88086,0.50125 10.38086,5.28125 6.24,8.48 14.1196,15.31922 23.59961,20.69922 -4.64002,2.32 -8.65938,2.48094 -11.85938,-1.03906 -7.8,-8.56 -15.40109,-17.32141 -22.12109,-24.94141 z m 78.7207,0.79883 c 9.59273,-0.35711 16.49484,4.51937 22.33984,11.92187 -6.24,2.92 -11.44023,2.12118 -16.24023,-2.79882 -3.1,-3.16004 -6.81891,-5.70063 -10.37891,-8.64063 1.485,-0.2725 2.90891,-0.43141 4.2793,-0.48242 z m 22.84961,2.92187 c 4.80094,0.59813 8.48117,3.11461 11.45117,7.59961 -8.52,3.82 -11.62062,-3.17859 -16.64062,-7.55859 1.865,-0.225 3.58914,-0.24125 5.18945,-0.041 z m -486.410158,1.08985 c 1.360938,0.16625 2.81086,0.65539 4.38086,1.65039 -6.02,0.28 -10.580156,0.49922 -15.160156,0.69922 3.405,-0.435 6.696484,-2.84836 10.779296,-2.34961 z m 156.408208,0.98828 c 6.65062,-0.0591 13.30812,0.58203 19.95312,0.58203 30.58,0.02 61.17977,2.00047 91.75977,-0.51953 0.74,-0.06 1.50015,0 2.16015,0 0.56,1.46 -0.16078,2.51984 -0.80078,3.33984 -7.62,9.84 -14.09984,20.62 -22.83984,29.5 -4.56,4.64 -10.34055,8.08008 -15.56055,12.08008 -1.24,0.94 -2.51883,0.39977 -3.79883,0.25977 -6.98,-0.78 -13.68133,-2.80079 -20.36133,-4.80079 -19.1,-5.7 -38.67945,-8.51851 -58.43945,-10.47851 -21.08,-2.08 -41.59906,-7.39988 -62.53906,-10.33984 -26.520044,-3.72002 -53.261095,-5.76157 -79.621095,-10.60157 7.76,-0.72 13.300391,-0.77929 20.900391,0.22071 l 41.720704,0.56054 c 6.14,-2.32 9.65828,-3.48117 14.23828,-3.70117 22.28,-1.06 44.42008,-3.49934 66.58008,-5.75977 2.215,-0.225 4.43156,-0.3221 6.64844,-0.34179 z m 127.45312,2.80273 c 6.32,4.16 8.89984,10.15852 13.33984,14.47852 8.3,8 16.8393,15.74148 25.7793,23.02148 1.92,1.56 3.62,2.9386 3,6.0586 -2.76,13.88 -3.0193,28.36031 -6.7793,41.82031 -4.16,14.94 -5.46148,30.33969 -9.52148,45.17969 -7.08,25.82 -7.51883,52.68023 -12.79883,78.74023 -4.8,23.68 -7.45984,47.68047 -12.33984,71.48047 -0.36,-12.86 -0.83961,-25.69906 -1.09961,-38.53906 -1.02,-50.82 -1.74102,-101.64141 -3.04102,-152.44141 -0.5,-19.28 0.50024,-38.56031 -0.25976,-57.82031 -0.06,-1.5 -0.44063,-3.55946 0.35937,-4.43946 0.37167,-0.40953 0.61825,-0.836 0.92774,-1.2539 -0.0318,-0.14464 -0.0596,-0.295 -0.0781,-0.45703 -0.023,-0.20142 -0.047,-0.40192 -0.0684,-0.60352 -0.003,-0.0299 -0.005,-0.0599 -0.008,-0.0898 -0.0932,-0.25328 -0.16309,-0.5097 -0.17383,-0.77539 -0.0365,-0.15269 -0.0569,-0.25054 -0.13476,-0.53906 -0.0507,0.31814 -0.0108,0.0226 0.0351,-0.26563 -0.002,-0.0963 -8e-4,-0.19274 -0.002,-0.28906 -7.9e-4,-0.10018 -1.7e-4,-0.20059 0,-0.30078 6e-5,-0.096 0,-0.19111 0,-0.28711 2e-5,-0.11903 0,-0.23841 0,-0.35742 v -0.32618 c 0.16019,-0.39653 0.28337,-0.80992 0.48047,-1.18945 0.005,-0.01 0.0386,-0.0377 0.0547,-0.0547 0.0143,-0.0505 0.0294,-0.0982 0.0391,-0.13281 -0.002,0.0172 -0.006,0.0336 -0.008,0.0508 0.003,-0.009 0.007,-0.0167 0.01,-0.0254 0.004,-0.0293 0.009,-0.0516 0.0137,-0.0801 0.01,-0.0732 0.0341,-0.13881 0.0605,-0.20312 -0.007,0.0235 -0.0306,0.10487 -0.0508,0.2207 0.0327,-0.0903 0.0535,-0.14269 0.0918,-0.25195 v -0.002 c 0.003,-0.0545 0.0268,-0.17623 0.0605,-0.30664 0.003,0.0273 -0.0192,0.13955 -0.0586,0.30274 0.01,-0.0269 0.0363,-0.062 0.0605,-0.0957 0.0398,-0.0948 0.0778,-0.1907 0.10937,-0.28906 0.0106,-0.11782 0.0211,-0.2346 0.0742,-0.33789 0.0186,-0.0362 0.0455,-0.068 0.0684,-0.10156 v -0.002 c 0.0205,-0.10264 0.0434,-0.20423 0.0742,-0.30274 -0.098,-0.21689 -0.15431,-0.38583 -0.16211,-0.5664 -0.0437,-0.084 -0.0729,-0.18617 -0.0879,-0.30664 -0.0338,-0.1205 -0.0698,-0.24219 -0.0937,-0.34571 -0.0234,-0.0261 -0.0469,-0.052 -0.0703,-0.0781 0,-0.0846 10e-6,-0.16927 0,-0.25391 -0.004,-0.0174 -0.0121,-0.0407 -0.0156,-0.0566 -0.0814,-0.0931 -0.104,-0.12232 -0.11523,-0.25586 -0.0904,-0.18042 -0.10337,-0.39235 -0.14454,-0.59375 2e-4,-0.0126 -1.9e-4,-0.0264 0,-0.041 -0.0287,-0.086 -0.0532,-0.1733 -0.0762,-0.26172 -0.0202,-0.0336 -0.0435,-0.0661 -0.0605,-0.10157 -0.008,-0.0164 -0.0129,-0.0339 -0.0195,-0.0508 -0.0306,0.23558 -0.032,0.18205 -0.0137,-0.041 -0.008,-0.0229 -0.0174,-0.0449 -0.0234,-0.0684 -0.0859,-0.18155 -0.14608,-0.44518 -0.2168,-0.86914 -0.0194,-0.1163 0.0105,-0.23457 0.0351,-0.35157 -10e-4,-0.12232 -1.8e-4,-0.2816 0,-0.28906 -10e-5,-0.0874 10e-6,-0.17432 0,-0.26172 -0.0236,-0.39483 0.0754,-0.78234 0.23438,-1.14257 4.9e-4,-0.002 8e-4,-0.006 0.002,-0.008 0.0115,-0.0419 0.0301,-0.0826 0.0508,-0.12109 0.0125,-0.0613 0.0227,-0.12327 0.0391,-0.18359 0.0341,-0.12555 0.0966,-0.24749 0.16406,-0.36719 0.0328,-0.21041 0.075,-0.40222 0.11133,-0.39844 0.009,-0.0303 0.0202,-0.0597 0.0293,-0.0898 -0.0148,-0.0518 -0.022,-0.11264 -0.0234,-0.17774 -0.0104,-0.0456 -0.0144,-0.087 -0.0215,-0.13086 -0.0739,-0.12347 -0.15427,-0.24406 -0.19336,-0.38281 -0.0108,-0.0383 -0.0185,-0.0782 -0.0234,-0.11719 -0.11902,-0.27546 -0.20766,-0.52098 -0.19727,-0.58984 -0.0387,-0.0629 -0.0469,-0.14264 -0.0547,-0.31641 -0.0465,-0.10221 -0.0785,-0.22178 -0.10156,-0.39062 -0.17188,-0.30899 -0.15244,-0.73465 -0.10547,-1.07617 -0.002,-0.0501 -0.005,-0.19004 -0.004,-0.22852 -3.4e-4,-0.095 4e-5,-0.1902 0,-0.28516 -0.041,-0.15616 -0.0694,-0.27463 -0.16015,-0.58593 10e-4,-0.0123 0.0133,-0.1625 0.0332,-0.3125 -0.003,-0.11559 -0.002,-0.232 -0.002,-0.34766 -7.5e-4,-0.0861 -1.5e-4,-0.17171 0,-0.25781 4e-5,-0.1654 0,-0.3307 0,-0.4961 v -0.71484 c -5.4e-4,-0.0876 0.006,-0.14605 0.0117,-0.20898 -0.25953,0.21816 -0.0351,-0.25973 0.22851,-0.73047 -8.2e-4,-0.0773 -3.4e-4,-0.15512 0,-0.23242 10e-5,-0.0727 0,-0.1441 0,-0.2168 2e-5,-0.0877 10e-6,-0.17597 0,-0.26367 v -0.22461 c 0.0234,-0.0593 0.0469,-0.11845 0.0703,-0.17774 v -0.041 c -0.0391,-0.0913 -0.0651,-0.19442 -0.0742,-0.3086 -0.0162,-0.0336 -0.0293,-0.06 -0.0449,-0.0937 0.0131,0.027 0.0264,0.0544 0.0449,0.0879 -0.003,-0.0444 -0.008,-0.089 -0.008,-0.13476 v -0.002 c -0.0353,-0.14266 -0.0549,-0.22834 -0.11914,-0.46094 -0.005,-0.002 -0.007,-2.5e-4 -0.0117,-0.002 -0.004,-0.0704 -0.008,-0.11477 -0.0137,-0.21484 -1.4e-4,-0.003 0.005,-0.0283 0.006,-0.0391 v -0.002 c -0.006,0.004 -0.0138,-0.099 -0.002,-0.11328 0.0159,-0.0185 0.0329,-0.0362 0.0488,-0.0547 -0.11559,-0.0271 0.15926,-0.811 0.39453,-0.99805 0.007,-0.006 0.0181,-0.004 0.0254,-0.01 0.31331,-0.7613 0.88301,-1.14453 1.45508,-1.14453 0.37733,0 0.75521,0.16683 1.05859,0.49805 -2.3e-4,-0.19083 0,-0.31882 0,-0.5918 z m -2.93359,2.2461 c 0.0153,0.004 0.0364,-0.005 0.0664,-0.0312 0.10985,-0.0953 0.0547,-0.0865 0.14453,-0.16993 0.002,-0.0159 0.006,-0.0312 0.008,-0.0469 -0.0723,0.0832 -0.14683,0.1645 -0.21875,0.24805 z m 0.0996,1.02343 c 1.4e-4,0.002 -1.6e-4,0.004 0,0.006 0.022,0.0459 0.0371,0.0766 0.0586,0.11914 -10e-4,-0.004 -0.003,-0.0136 -0.004,-0.0176 -0.0196,-0.0355 -0.0395,-0.0799 -0.0547,-0.10743 z m 0.59375,8.64258 c 0.008,0.0347 0.0111,0.0649 0.0215,0.10156 0.002,0.008 0.012,0.0196 0.0176,0.0293 0.004,-0.0108 0.005,-0.0226 0.01,-0.0332 0.005,-0.01 0.0126,-0.0177 0.0176,-0.0274 1.2e-4,-0.01 -7e-5,-0.0195 0,-0.0293 -0.0264,-0.0395 -0.0376,-0.0851 -0.0625,-0.125 -0.001,0.0277 -0.004,0.0569 -0.004,0.084 z m -0.006,0.26758 c -0.0299,0.105 -0.0542,0.21216 -0.0684,0.32227 0.0218,-0.0375 0.0433,-0.0747 0.0645,-0.11133 0.0111,-0.0459 0.0211,-0.0923 0.0312,-0.13867 -0.009,-0.0361 -0.0173,-0.0712 -0.0273,-0.0723 z m 0.0273,0.0723 c 0.005,0.0201 0.0114,0.0238 0.0156,0.0566 0.009,-0.0234 0.0181,-0.047 0.0273,-0.0703 -1.4e-4,-0.0201 1e-4,-0.0403 0,-0.0605 -0.006,-0.008 -0.0127,-0.0161 -0.0176,-0.0254 -0.009,0.0329 -0.018,0.0657 -0.0254,0.0996 z m -0.0312,0.13867 c -0.007,0.0298 -0.0128,0.0607 -0.0215,0.0898 0.0225,-0.0567 0.0458,-0.11322 0.0684,-0.16992 -0.0143,0.0259 -0.0316,0.0537 -0.0469,0.0801 z m -0.0645,0.11133 c -0.0148,0.0255 -0.0284,0.0503 -0.043,0.0762 -0.0434,0.27855 -0.0696,0.58042 -0.0391,0.46289 0.0453,-0.17468 0.0587,-0.35843 0.082,-0.53906 z m -0.2461,0.62695 c -0.002,0.0111 -0.006,0.022 -0.008,0.0332 0.0236,-0.0494 0.0447,-0.10024 0.0703,-0.14844 -0.0189,0.0392 -0.0418,0.0767 -0.0625,0.11524 z m -0.008,0.0332 c -0.0152,0.0318 -0.0307,0.0634 -0.0449,0.0957 -0.0388,0.14485 -0.10859,0.55718 -0.0684,0.41992 0.0498,-0.16908 0.0792,-0.34253 0.11328,-0.51563 z m 0.53516,5.15821 c 0.0278,0.099 0.0552,0.19234 0.0879,0.29492 -0.002,-0.0527 5.8e-4,-0.10852 0.006,-0.16602 -0.0321,-0.0902 -0.0801,-0.16502 -0.0996,-0.26953 0.002,0.0472 1.7e-4,0.0982 0.006,0.14063 z m 0.0879,0.29492 c 1.3e-4,0.004 -1.6e-4,0.008 0,0.0117 0.003,0.006 0.007,0.0101 0.01,0.0156 -0.003,-0.009 -0.007,-0.018 -0.01,-0.0273 z m -0.0547,1.32226 c -0.005,0.055 -0.01,0.11075 -0.0195,0.16406 7.2e-4,0.01 -6.6e-4,0.007 0,0.0156 0.0183,-0.0196 0.0361,-0.0388 0.0547,-0.0566 0.0233,-0.15684 0.0668,-0.36231 0.12695,-0.59375 -0.005,0.006 -0.009,0.0131 -0.0137,0.0195 -0.008,0.0352 -0.0168,0.0704 -0.0254,0.10547 0.008,-0.0286 0.0116,-0.0587 0.0176,-0.0879 -0.0518,0.14241 -0.0941,0.28879 -0.14063,0.43359 z m -0.26367,0.64258 c -0.008,0.0225 -0.0156,0.0411 -0.0234,0.0625 -0.004,0.0308 -0.007,0.0511 -0.01,0.0762 0.007,-0.006 0.0103,-0.0108 0.0176,-0.0176 0.001,-0.0334 0.008,-0.0763 0.0156,-0.12109 z m -0.0645,0.16992 c -0.002,0.008 -0.003,0.0129 -0.006,0.0215 0.003,-0.008 0.007,-0.0173 0.01,-0.0254 z m 0.004,-0.004 c 0.005,-0.006 0.0114,-0.0114 0.0176,-0.0176 0.002,-0.0193 0.008,-0.0371 0.01,-0.0566 -0.009,0.0248 -0.0186,0.0508 -0.0274,0.0742 z m -0.64258,-18.45118 c 0.008,-0.0555 0.009,-0.0734 -0.01,0.0605 -1.7e-4,0.0266 -6.5e-4,0.0319 -0.002,0.041 0.004,-0.0348 0.007,-0.0664 0.0117,-0.10157 z m 0.22071,2.4004 c -10e-4,1.8e-4 -0.003,0.002 -0.004,0.002 -0.002,0.006 -0.004,0.0118 -0.006,0.0176 0.003,-0.006 0.007,-0.0136 0.01,-0.0195 z m -5.875,1.7246 c 2.4,4.66 1.74078,9.01946 -1.69922,12.43946 -9.94,9.88 -18.38039,21.00015 -27.40039,31.66015 -2.18,2.58 -4.74063,4.82071 -7.14063,7.22071 -0.74,0.74 -2.23961,1.31961 -1.09961,2.59961 0.92,1.04 2.07953,0.27914 3.01953,-0.38086 2.8,-1.98 5.30086,-4.3 7.38086,-7 7.72,-10.02 17.01977,-18.73969 24.25977,-29.17969 0.5,-0.72 1.04078,-1.61953 2.30078,-1.51953 1.12,3.7 0.29867,6.70015 -2.36133,9.66015 -9.7,10.82 -19.07859,21.93954 -30.55859,31.01954 -1.12,0.88 -3.0818,2.03953 -1.8418,3.51953 1.68,2 2.92055,-0.43985 4.06055,-1.33985 2.94,-2.34 5.74047,-4.87906 8.98047,-7.03906 -1.66,5.98 -5.13985,11.03867 -9.83985,14.63867 -3.7,2.84 -1.78007,6.12153 -1.08007,8.10157 1.02,2.95996 3.16007,0.57953 4.58007,-0.98047 8.8,-9.6 17.64047,-19.17977 26.48047,-28.75977 0.38,-0.4 0.88016,-0.66023 1.66016,-1.24023 0.64,3.54 -0.18047,6.14015 -2.48047,8.66015 -8.52,9.34 -16.92078,18.7993 -25.30078,28.2793 -1.04,1.18 -3.48055,2.58008 -2.06055,4.08008 1.94,2.04 3.26133,-0.68039 4.36133,-1.90039 8.2,-9.04 16.29914,-18.18047 24.61914,-27.48047 1.7,3.8 1.11961,6.64057 -1.40039,9.56054 -7.54,8.76002 -15.83969,16.72016 -24.17969,24.66016 -0.14,0.14 -0.35898,0.19986 -0.45898,0.33984 -1.14,1.56003 -4.03992,3.27946 -2.41992,4.93946 1.78,1.82 3.5189,-0.99836 4.8789,-2.31836 8.22,-7.96 16.45969,-15.89988 23.67969,-24.83984 0.5,0.43997 1.02148,0.85882 1.52148,1.29882 -9.72,11.8 -19.44062,23.59961 -30.14062,36.59961 -2.2,-10.08 -4.49977,-18.50008 -5.75977,-27.08008 -1.38,-9.32 -3.4407,-18.51898 -4.2207,-27.95898 -0.9,-10.86 -1.09969,-11.35977 9.82031,-16.75977 -0.26,2.98 -3.83945,4.13946 -3.93945,8.43946 4.7,-3.84 8.10047,-7.8793 11.98047,-11.2793 7.68,-6.74 13.83969,-14.93992 20.17969,-22.91992 0.82,-1.02 2.09867,-2.26133 0.63867,-3.36133 -3.7,-2.78 0.74047,-2.89891 0.98047,-4.37891 z m 6.42578,4.66407 c -0.001,0.005 -0.004,0.009 -0.006,0.0137 0.0207,0.0197 0.0359,0.0351 0.0703,0.0664 -0.0266,-0.0342 -0.0443,-0.0557 -0.0644,-0.0801 z m 0.1875,0.71289 c -0.0137,0.024 -0.0286,0.0475 -0.041,0.0723 0.003,0.009 0.004,0.0178 0.008,0.0273 0.0112,-0.0282 0.024,-0.0559 0.0351,-0.084 -6.3e-4,-0.005 -8.5e-4,-0.0104 -0.002,-0.0156 z m -0.10547,0.24609 c -0.007,0.0266 -0.0142,0.0531 -0.0195,0.0801 l 0.002,0.002 c 0.009,-0.0228 0.0183,-0.0455 0.0274,-0.0684 -0.003,-0.005 -0.007,-0.009 -0.01,-0.0137 z m -14.4668,4.47656 c -5.94,6.46 -11.02109,13.64 -18.12109,19 4.46,-7.78 7.94109,-16.44 18.12109,-19 z m 14.21289,0.17969 c 0.003,0.0168 0.004,0.0341 0.008,0.0508 0.003,0.0129 0.0156,0.0312 0.0234,0.0469 0.002,-0.0213 0.004,-0.0297 0.006,-0.0488 -0.0126,-0.0162 -0.0245,-0.0327 -0.0371,-0.0488 z m 0.43946,1.49805 c 0.005,0.0142 0.01,0.0289 0.0156,0.043 0.001,-0.008 0.002,-0.0136 0.004,-0.0215 -0.006,-0.007 -0.0131,-0.0143 -0.0195,-0.0215 z m 0.0273,0.0293 c -10e-4,0.0117 -6e-4,0.0235 -0.002,0.0352 0.0175,0.0417 0.028,0.0866 0.0488,0.12695 0.0135,0.0262 0.0409,0.0632 0.0723,0.0996 5.9e-4,-0.0422 8.5e-4,-0.0846 0.002,-0.12695 -0.0403,-0.045 -0.0808,-0.0897 -0.12109,-0.13477 z m 0.19531,0.23047 c 0.0149,0.0493 0.0369,0.10985 0.0488,0.15235 0.0237,0.0174 0.0389,0.0232 0.0254,-0.006 -0.0284,-0.0603 -0.0481,-0.093 -0.0742,-0.14649 z m -0.20312,0.0801 c 0.003,0.0583 0.005,0.11605 0.0156,0.17383 6.5e-4,8.9e-4 -6.5e-4,0.003 0,0.004 0.0248,0.034 0.0539,0.0633 0.084,0.0918 -0.047,-0.0762 -0.0637,-0.1833 -0.0996,-0.26953 z m 0.12695,0.66211 c -0.0233,0.0936 -0.0464,0.18736 -0.0684,0.28125 0.005,-0.014 0.0122,-0.0271 0.0176,-0.041 0.0182,-0.0686 0.0401,-0.13913 0.0625,-0.2129 -0.005,-0.0102 -0.007,-0.0174 -0.0117,-0.0273 z m -0.2168,1.16602 c -0.002,0.005 -0.005,0.0112 -0.008,0.0156 4.9e-4,0.0368 0.006,0.0186 0.008,-0.0156 z m -0.55273,3.00976 c -10e-4,-0.009 -0.0352,0.10264 -0.0742,0.23633 0.0245,-0.0653 0.0516,-0.1298 0.0684,-0.19727 0.006,-0.0234 0.006,-0.0366 0.006,-0.0391 z m 0.32031,1.60156 c -0.002,10e-4 -0.004,7.6e-4 -0.006,0.002 0.0695,0.0579 0.1855,0.15618 0.28906,0.24414 -1.3e-4,-0.0453 -3.9e-4,-0.0738 0,-0.125 -0.0922,-0.0377 -0.21628,-0.10153 -0.2832,-0.1211 z m 92.55469,8.4004 c 0.53,0.1625 1.01516,0.53164 1.53516,1.18164 30.38,37.86 60.66007,75.80164 89.08007,115.18164 4.78,6.62 10.41985,12.87929 13.33985,22.27929 -47.98,-43.28 -93.26102,-87.73961 -143.04102,-129.09961 13.54,-3.44 25.42125,-6.44046 37.28125,-9.48046 0.7,-0.18 1.27469,-0.225 1.80469,-0.0625 z m -99.30469,5.26171 c 1.1,4.14 0.42008,6.98157 -2.41992,9.60157 -6.78,6.2 -13.78117,12.15888 -19.70117,19.29882 5.74,-10.73995 13.36109,-19.98039 22.12109,-28.90039 z m -67.62109,4.85547 c 2.7,0.12 5.5407,0.69524 8.7207,1.86524 -10.26,-0.54 -17.9207,4.04008 -26.2207,6.08008 -1.2,0.28 -2.90008,2.20078 -3.58008,-0.19922 -0.62,-2.2 1.08148,-2.26016 3.02148,-2.66016 3.56,-0.74 6.49969,-3.3007 10.17969,-4.2207 2.62,-0.65 5.17891,-0.98524 7.87891,-0.86524 z m 13.07422,2.65235 c 2.03343,0.27468 4.13672,1.55265 6.38672,2.39257 -4.78,7.74001 -10.36008,14.36006 -17.58008,19.5 -0.58,0.42003 -1.34102,0.76126 -2.04102,0.78126 -10.72,0.17998 -20.57836,4.37976 -30.81836,6.75976 -1.3,0.32 -3.16094,1.73883 -3.46093,-0.70117 -0.22005,-1.72 1.13976,-2.56039 3.25976,-2.90039 11.74,-1.9 22.79984,-6.5393 34.33984,-9.2793 0.84,-0.2 1.54079,-0.98047 2.30079,-1.48047 l -0.59961,-1.67969 c -12.66,1.02 -24.00149,7.46079 -37.02149,10.30079 2.48,-4.46 5.12086,-6.34077 9.88086,-6.80079 11.52,-1.11995 22.30094,-5.35875 32.96094,-9.71874 1,-0.4 2.11984,-0.92094 2.33984,-2.46094 -2.44,-1.42 -4.62023,-0.89985 -7.24023,0.16015 -9.92,4 -19.88076,7.94008 -31.2207,10.08008 0.69999,-2.68 1.30109,-4.26094 3.62109,-4.96094 10.96,-3.28 21.85886,-6.8189 32.87891,-9.8789 0.66498,-0.185 1.33585,-0.20485 2.01367,-0.11328 z m 114.10742,4.57226 c 3.24,1.94 3.95851,5.30086 4.97851,8.38086 3.62,10.92 7.09977,21.89883 10.75977,32.79883 0.48,1.42 0.66164,4.28008 2.68164,3.58008 2.36,-0.82 0.69922,-3.13883 0.19922,-4.79883 -2.76,-9.22 -5.5593,-18.42059 -8.2793,-27.64063 -0.32,-1.09999 -1.64,-2.63914 0.5,-3.21874 1.32,-0.36001 2.05828,0.23937 2.73828,1.85937 5.64,13.56 8.00086,28.12059 13.88086,42.64063 -10.94,-6.08002 -21.1,-10.96165 -22.5,-24.68165 -0.82,-8 -3.55945,-15.81921 -5.43945,-23.69921 -0.4,-1.66 -0.75953,-3.28071 0.48047,-5.22071 z m -106.62109,4.98047 c 2.31999,4.02 4.16054,7.64102 4.56054,12.04102 0.86,9.58 1.5793,19.21961 3.7793,28.59961 0.66,2.74 -0.15945,4.11929 -1.93945,5.77929 -17.16,15.94 -34.81961,31.32032 -53.59961,45.32032 -15.16,11.3 -29.60024,23.41984 -44.24024,35.33984 -10.08,8.2 -20.92031,15.42086 -31.32031,23.38086 41.1,-49.8 81.7997,-99.86094 122.75977,-150.46094 z m 123.32031,5.80078 c 4.6,3.06 7.99984,5.73867 10.83984,9.13867 3.68,3.22 6.48008,7.36063 10.58008,10.14063 0.56,0.38 1.25922,1.2393 1.19922,1.7793 -1.5,12.68 7.38133,22.56171 8.86133,34.76172 -3.42,-1.14 -5.39969,-3.28 -6.67969,-7 -4.56,-13.2 -8.4218,-26.6418 -14.3418,-39.3418 -2.68,2.1 -1.05932,4.40109 -0.27929,6.62109 3.8,10.78 7.59921,21.56063 11.69921,33.14063 -4.5,-1.74 -8.15836,-2.82133 -7.81836,-8.36133 0.14,-2.06 -1.20015,-4.30031 -2.16015,-6.32031 -5.08,-10.74 -7.22039,-22.4786 -11.90039,-34.5586 z m -18.64453,3.45117 c 0.36281,0.36375 0.8239,1.71821 1.0039,2.40821 1.88,7.1 3.67953,14.20078 5.51953,21.30078 -2.64,-1.2 -6.71953,-0.32016 -7.51953,-3.16016 -1.68,-5.94 -3.59922,-11.94117 -3.69922,-18.20117 -0.04,-2.66 3.27891,-0.26031 4.37891,-2.32031 0.085,-0.16 0.19547,-0.14645 0.31641,-0.0274 z m -126.35547,6.3086 c -1.24,4.72 -4.02,5.8205 -8.5,6.56055 -7.92,1.29998 -15.52078,4.31851 -23.30078,6.47851 -1.36,0.38 -3.53953,2.58133 -4.01953,-1.13867 -0.32001,-2.48 0.25998,-3.38047 3,-3.98047 10.93996,-2.38 21.78031,-5.21992 32.82031,-7.91992 z m 119.85937,4.06055 c 0.68,2.69997 1.33977,5.4182 2.25977,9.1582 -5.92,-2.08 -2.90008,-5.91875 -3.58008,-8.71875 0.44,-0.16 0.88031,-0.29946 1.32031,-0.43945 z m -125.40039,4.67968 c -2.4,4.5 -3.87851,7.21953 -9.47851,7.51953 -6.56,0.36 -12.93993,3.66008 -19.41993,5.58008 -2.1,0.62 -4.18086,1.72031 -6.88085,1.32031 1.31997,-4.38 3.77984,-6.0007 7.83984,-6.7207 9.22,-1.6 18.19945,-4.29922 27.93945,-7.69922 z m 73.50391,2.18946 c 0.21531,-0.0663 0.46281,-0.0502 0.75781,0.0898 2.52,6.84 -0.0615,11.56055 -5.02148,16.06055 -6.16,5.56 -11.59985,11.90039 -17.33985,17.90039 -1.42,1.5 -2.69976,3.15851 -4.75976,3.97851 -1.88,-2.64 -2.49774,-5.11914 0.0605,-7.61914 9.08,-8.86 16.60032,-19.10117 24.82032,-28.70117 0.48,-0.57 0.83648,-1.51023 1.48242,-1.70898 z m 102.2168,2.44921 c 3.45999,3.64 8.06039,4.96125 8.90039,11.78125 1.1,9.16 5.50046,17.91883 8.98046,28.29883 -4.42,-2.5 -7.90093,-3.15859 -8.46093,-8.55859 -1.02,-9.84 -5.64039,-18.72094 -8.90039,-27.96094 -0.36,-1 -1.41957,-1.86055 -0.51953,-3.56055 z m -182.51954,4.88086 c -2.58,5.78 -7.20062,7.06008 -12.64062,8.08008 -7.3,1.34 -14.39875,3.83953 -22.21875,6.01953 1.02,-3.12 2.1382,-4.91961 5.1582,-5.59961 5.14,-1.16 10.16067,-2.84078 15.22071,-4.30078 4.75998,-1.38 9.50046,-2.75922 14.48046,-4.19922 z m 194.29883,6.33985 c 4.94,3.34 8.65992,5.46054 9.41992,11.56054 0.94,7.52 3.96125,14.77883 6.28125,22.79883 -4.36,-1.2 -6.08109,-3.61945 -6.62109,-7.43945 -1,-7.14 -4.57992,-13.47922 -6.91992,-20.19922 -0.66,-1.88 -1.24016,-3.8207 -2.16016,-6.7207 z m -112.8789,1.74023 c 0.98,1.38 1.06082,3.04063 0.0195,4.14063 -8.48,8.98 -15.74008,19.05851 -25.08008,27.47851 -1.24,-2.3 -2.51938,-4.12031 -0.35938,-6.32031 8.14,-8.32 16.21985,-16.71859 24.33985,-25.05859 0.22,-0.2 0.70008,-0.16024 1.08008,-0.24024 z m -91.54102,2.72071 c -7.42,11.43997 -20.99875,9.67875 -31.71875,15.71874 1.48,-7.74 1.92,-7.49945 8.5,-8.93945 7.86,-1.72 15.47875,-4.47931 23.21875,-6.77929 z m 216.62109,5.91992 c 9.86,9.44 9.18047,21.53929 14.48047,32.27929 -5.12,-1.56 -6.62133,-3.50054 -7.36133,-7.56054 -1.44,-7.84 -4.33914,-15.41875 -7.11914,-24.71875 z M 210.27148,451.75 c -3.42,7.76 -9.9796,11.12125 -28.5996,15.78125 1,-6.62 6.01921,-7.29961 10.69921,-8.59961 5.82,-1.58 12.20039,-1.50164 17.90039,-7.18164 z m 100.74024,0.24023 c 1.42,3.94 0.65976,6.50118 -1.74024,9.20118 -6.84,7.72 -13.36,15.73867 -20,23.63867 -0.5,-0.4 -0.97851,-0.79922 -1.47851,-1.19922 8.74,-9.64 15.15875,-20.92063 23.21875,-31.64063 z m -9,5.70118 c -4.86,7.08 -7.69977,15.48 -14.75977,21 0.62,-10.06 9.87977,-14 14.75977,-21 z m 146.93945,3.71875 c 3.96,6.64 3.84094,14.42117 5.46094,21.70117 -1.26,-7.38 -4.14094,-14.34117 -5.46094,-21.70117 z m -137.51953,1.58007 c 0.96,4.4 -0.0791,6.48094 -2.53906,8.96094 -6.7,6.82 -12.69961,14.30055 -19.59961,21.06055 4.74,-11.58 14.87867,-19.14149 22.13867,-30.02149 z m -109.17969,0.98047 c -2.76,4.9 -4.33953,8.86086 -10.51953,9.38086 -5.4,0.48 -10.62008,3.32016 -16.08008,5.16016 0.9,-6.54 0.89961,-6.54102 26.59961,-14.54102 z m 254.35938,6.6211 c 5.76,4.48 4.40125,11.43886 6.28125,17.29882 -5.6,-4.47996 -4.10125,-11.57882 -6.28125,-17.29882 z m -145.11914,1.77929 c 1.26,5.52 0.7989,9.58032 -2.6211,13.32032 -4.54,5.02 -8.61898,10.43867 -12.95898,15.63867 -1.12,1.36 -2.48102,4.20086 -4.04102,2.88086 -1.72,-1.44 -2.67859,-4.45953 -0.55859,-7.01953 3.6,-4.36 7.18023,-8.71961 10.74023,-13.09961 2.98,-3.64 5.89946,-7.32071 9.43946,-11.72071 z m -117.64063,3.33985 c -5.4,10.44 -15.8797,7.95906 -23.67968,11.53906 6.62,-6.22 14.79968,-9.01906 23.67968,-11.53906 z m 272.32032,2.06054 c 1.37999,5.36 2.76062,10.7186 4.14062,16.0586 -0.52,0.16 -1.06008,0.34 -1.58008,0.5 -1.38,-5.38 -2.77969,-10.73914 -4.17969,-16.11914 0.54,-0.14 1.07915,-0.29946 1.61915,-0.43946 z m 6.54101,7 c 4.68,4.52 10.53859,7.81852 9.55859,15.47852 -0.74,0.72 -1.31945,0.12125 -1.93945,-0.21875 -3.58,-1.94 -1.77961,-5.82102 -3.09961,-8.54102 -1.1,-2.3 -6.51953,-1.07875 -4.51953,-6.71875 z m -160.88086,1.71875 c 2.5,18.1 -1.48086,26.76079 -16.88086,37.80079 -1.34,-4.14 -0.89992,-7.61993 2.08008,-10.91993 3.66,-4.06 7.06141,-8.36015 10.44141,-12.66015 1.22,-1.52 2.57976,-3.11977 2.75976,-6.25977 -7.46,4.84 -10.37953,12.76047 -16.51953,17.48047 -0.52,-0.4 -1.02102,-0.80117 -1.54101,-1.20117 6.36,-7.82 12.70015,-15.66024 19.66015,-24.24024 z m -128.67969,0.94141 c -4.48,7.38 -13.08062,7.42008 -19.64062,11.08008 3.16,-10.02 12.06062,-9.30008 19.64062,-11.08008 z m -8.78125,10.21875 c -3.32,7.26 -10.15843,8.27984 -17.39843,10.33984 3.54,-8.4 11.73843,-7.19984 17.39843,-10.33984 z m -8.41992,10.74023 c -2.16,3.64001 -6.09984,3.75985 -9.33984,5.33985 -0.84,0.42 -1.83883,0.90117 -2.29883,-0.29883 -0.48,-1.24 0.23953,-2.10141 1.51953,-2.44141 3.38,-0.88 6.73914,-1.73917 10.11914,-2.59961 z m 146.72071,1.72071 c 3.07999,13.94 -10.1793,17.80008 -14.7793,27.08008 -2.8,-6.48 -2.6211,-7.84077 1.3789,-12.30079 4.34,-4.82 8.70039,-9.59929 13.4004,-14.77929 z m -153.82032,9.5 c -2.86,5.2 -7.59867,4.62 -11.63867,5.5 2.96,-3.12 6.89867,-4.22 11.63867,-5.5 z m 153.88086,5.45898 c 0.5,10.66 -9.60086,14.42 -13.88086,22 -2.16,-11.62 9.46086,-14.54 13.88086,-22 z m -161.30078,3.88086 c -4.42,0.92 -6.01984,6.25922 -10.83984,6.69922 1.9,-5.48 6.11984,-6.69922 10.83984,-6.69922 z m 161.04102,7.43945 c 2.14,6.04 1.8589,7.36102 -2.1211,11.54102 -3.18,3.38 -6.28,6.83891 -10,10.87891 -1.76,-8.4 -1.7389,-8.41993 12.1211,-22.41993 z m 0.85937,12.33985 c 1.52,7.6 2.37953,4.42008 -11.98047,19.58008 -1.78,-3.74 -1.44,-6.24024 2,-8.74024 3.86,-2.82 7.08047,-6.53984 9.98047,-10.83984 z m -0.11914,11.67969 c 3.42,10.16 -6.26105,12.50132 -10.04101,18.36132 -3.32002,-10.1 7.62101,-11.68132 10.04101,-18.36132 z m 0.7793,13.74023 c 1.2,6.76 -4.22063,8.42016 -7.14063,11.66016 -0.58,0.64 -1.31937,0.42062 -1.85937,-0.35938 -0.88,-1.32 -0.70102,-2.42047 0.45898,-3.48047 2.64,-2.38 5.24102,-4.80031 8.54102,-7.82031 z m 0.16015,9.36133 c 2.36,6.56 -3.62062,8.44008 -5.64062,12.58008 -1.8,-2.9 -1.79938,-2.90008 5.64062,-12.58008 z m 0.25977,11.08008 c 2.4,5.1 -0.60039,8.29992 -3.90039,11.41992 -2.38,-4.76 -2.37961,-4.75992 3.90039,-11.41992 z m 0.74023,13.19922 c -0.1,2.48 1.12039,4.83945 -1.09961,6.43945 -0.96,0.7 -1.52093,-0.19867 -1.96093,-1.13867 -1.24,-2.7 5.4e-4,-4.12078 3.06054,-5.30078 z"
   transform="translate(363.48653,-85.52857)" />
	
	
	
</g>
<rect
   x="83.213493"
   y="547.76855"
   class="st0"
   width="501.25"
   height="110.36"
   id="rect215" />

<rect
   x="67.973473"
   y="607.16858"
   class="st0"
   width="501.25"
   height="110.36"
   id="rect223" />

<radialGradient
   id="SVGID_1_"
   cx="710.86481"
   cy="630.08649"
   r="94.694199"
   fx="799.16382"
   fy="664.29572"
   gradientTransform="matrix(1.0934,0,0,0.5978,-95.3826,136.6525)"
   gradientUnits="userSpaceOnUse">
	<stop
   offset="0"
   style="stop-color:#FFFFFF"
   id="stop227" />
	<stop
   offset="7.380247e-03"
   style="stop-color:#F6F6F6"
   id="stop229" />
	<stop
   offset="0.0477"
   style="stop-color:#C8C8C8"
   id="stop231" />
	<stop
   offset="0.0931"
   style="stop-color:#9D9D9D"
   id="stop233" />
	<stop
   offset="0.1419"
   style="stop-color:#777777"
   id="stop235" />
	<stop
   offset="0.195"
   style="stop-color:#575757"
   id="stop237" />
	<stop
   offset="0.2537"
   style="stop-color:#3B3B3B"
   id="stop239" />
	<stop
   offset="0.32"
   style="stop-color:#252525"
   id="stop241" />
	<stop
   offset="0.3974"
   style="stop-color:#141414"
   id="stop243" />
	<stop
   offset="0.4931"
   style="stop-color:#090909"
   id="stop245" />
	<stop
   offset="0.6274"
   style="stop-color:#020202"
   id="stop247" />
	<stop
   offset="1"
   style="stop-color:#000000"
   id="stop249" />
</radialGradient>

<text
   xml:space="preserve"
   style="font-size:80px;line-height:1;font-family:Castellar;-inkscape-font-specification:Castellar;text-align:center;text-anchor:middle;stroke-width:2"
   x="330.07559"
   y="730.18555"
   id="text3152"><tspan
     sodipodi:role="line"
     id="tspan3150"
     x="330.07559"
     y="730.18555"
     style="stroke-width:2">METRICA</tspan><tspan
     sodipodi:role="line"
     x="330.07559"
     y="810.18555"
     id="tspan3154"
     style="stroke-width:2">MUSIC</tspan></text></svg>
